<?xml version="1.0" encoding="UTF-8"?>
<svg id="Layer_2" data-name="Layer 2" xmlns="http://www.w3.org/2000/svg" viewBox="0 0 737.48 613.49">
  <defs>
    <style>
      .cls-1 {
        fill: #feff16;
      }

      .cls-2 {
        fill: #fffc19;
      }
    </style>
  </defs>
  <g id="Layer_1-2" data-name="Layer 1">
    <g>
      <path class="cls-2" d="M58.07.95v1.14c-.55,0-1.04.05-1.48.14-.43.09-.82.25-1.18.46-.36.22-.69.5-1,.84-.31.35-.61.79-.92,1.32-.39.7-1.03,2.41-1.94,5.13l-11.61,33.58h-1.23l-9.49-26.64-9.43,26.64h-1.11L6.3,8.97c-.94-2.62-1.53-4.15-1.75-4.58-.41-.78-.96-1.36-1.66-1.74-.7-.38-1.66-.57-2.89-.57V.95h15.42v1.14h-.74c-1.11,0-1.94.25-2.5.74-.56.49-.84,1.09-.84,1.78,0,.35.11.94.32,1.77.22.83.56,1.89,1.03,3.18l8.2,23.38,6.91-19.88-2.21-6.3c-.33-.76-.66-1.42-1-2-.34-.57-.73-1.06-1.17-1.46-.44-.4-.95-.7-1.54-.91-.58-.2-1.29-.31-2.1-.31V.95h16.22v1.14h-1.11c-1.17,0-2.01.24-2.53.72-.52.48-.78,1.15-.78,2.01,0,1.04.46,2.87,1.38,5.47l7.99,22.64,7.93-22.95c.9-2.58,1.35-4.34,1.35-5.28s-.43-1.64-1.29-2.03c-.86-.39-1.97-.58-3.32-.58V.95h12.44Z"/>
      <path class="cls-2" d="M83.44,30.56h-13.94l-2.44,5.68c-.6,1.38-.9,2.42-.9,3.13,0,.28.05.54.15.78s.3.46.6.66c.3.2.73.37,1.27.5.55.13,1.27.23,2.15.31v.98h-11.34v-.98c1.49-.27,2.46-.61,2.92-1.04.46-.42.93-1.07,1.42-1.92.49-.86,1.01-1.94,1.58-3.25l12.66-29.63h.93l12.53,29.95c.51,1.24.99,2.23,1.42,2.99.43.75.88,1.34,1.34,1.75.46.42.96.7,1.5.86s1.18.26,1.93.29v.98h-14.2v-.98c.71-.04,1.3-.11,1.78-.24.48-.12.85-.28,1.13-.48.27-.19.47-.42.58-.66.11-.25.17-.52.17-.82.02-.39-.07-.89-.25-1.5-.19-.61-.46-1.34-.81-2.19l-2.18-5.18ZM82.69,28.6l-6.11-14.55-6.27,14.55h12.37Z"/>
      <path class="cls-2" d="M131.2,5.8l.93,11.36h-.93c-.92-2.81-2.13-4.95-3.64-6.4-2.16-2.07-4.91-3.11-8.26-3.11-4.58,0-8.07,1.81-10.46,5.44-2,3.06-3,6.71-3,10.94,0,3.43.66,6.57,1.99,9.4.58,1.26,1.28,2.39,2.1,3.4.81,1.01,1.73,1.87,2.73,2.58,1.01.71,2.1,1.26,3.28,1.65,1.18.39,2.42.58,3.73.58s2.61-.17,3.84-.5c1.23-.34,2.43-.83,3.6-1.49v-10.41c0-.92-.04-1.66-.11-2.22-.07-.56-.17-1-.31-1.34-.13-.34-.31-.59-.53-.77-.22-.18-.47-.34-.76-.48-.57-.3-1.58-.45-3.03-.45v-1.01h13.94v1.01h-.66c-.6,0-1.11.07-1.54.2s-.77.38-1.05.76-.47.9-.6,1.59c-.12.69-.19,1.59-.19,2.71v11.02c-1.06.57-2.09,1.05-3.08,1.45-.99.4-2,.73-3.01.98-1.02.26-2.06.45-3.13.57-1.07.12-2.21.19-3.41.19-6.96,0-12.24-2.23-15.85-6.69-2.71-3.34-4.06-7.2-4.06-11.57,0-1.22.12-2.45.37-3.68.25-1.23.6-2.43,1.06-3.6.46-1.17,1.03-2.29,1.7-3.36.67-1.07,1.42-2.06,2.26-2.96,1.77-1.98,3.79-3.44,6.07-4.38,2.27-.94,4.81-1.41,7.61-1.41.83,0,1.56.03,2.18.09.62.06,1.22.16,1.81.29s1.2.31,1.84.53c.65.22,1.41.49,2.3.81.97.37,1.64.56,1.99.56.34,0,.62-.15.86-.46.24-.31.39-.92.44-1.82h.98Z"/>
      <path class="cls-2" d="M136.37,6.62h9.77l22.01,27V12.86c0-2.21-.25-3.59-.74-4.14-.67-.74-1.71-1.11-3.11-1.11h-1.25v-.98h12.53v.98h-1.27c-1.52,0-2.6.46-3.24,1.38-.39.55-.58,1.84-.58,3.88v30.34h-.96l-23.73-28.99v22.17c0,2.21.24,3.59.72,4.14.65.74,1.69,1.11,3.11,1.11h1.27v.98h-12.53v-.98h1.25c1.54,0,2.63-.46,3.27-1.38.39-.55.58-1.84.58-3.88V11.34c-.53-.62-.97-1.11-1.33-1.49-.35-.37-.69-.68-1.01-.92s-.66-.43-1.04-.58c-.37-.15-.83-.32-1.38-.52-.51-.16-1.29-.24-2.34-.24v-.98Z"/>
      <path class="cls-2" d="M187.71,8.58v14.23h7.91c1.15,0,2.08-.1,2.8-.31.72-.2,1.28-.52,1.69-.96.41-.43.69-.98.85-1.63.16-.65.27-1.43.32-2.34h.98v12.53h-.98c-.12-.88-.25-1.61-.37-2.16-.12-.56-.25-.96-.37-1.21-.16-.32-.36-.6-.61-.84-.25-.24-.57-.45-.96-.62-.39-.18-.86-.31-1.41-.4-.55-.09-1.19-.13-1.94-.13h-7.91v11.87c0,1.58.07,2.55.21,2.92.07.16.16.31.27.45.11.14.26.26.46.36.2.1.47.17.8.23s.74.08,1.23.08h6.11c1.04,0,1.92-.03,2.62-.09.7-.06,1.31-.17,1.83-.32.52-.15.98-.36,1.38-.64.4-.27.82-.62,1.26-1.05.55-.53,1.11-1.21,1.67-2.04.57-.83,1.13-1.81,1.7-2.92h1.06l-3.11,9.03h-27.74v-.98h1.27c.34,0,.69-.04,1.06-.11.37-.07.72-.19,1.05-.35s.62-.36.89-.6.45-.52.56-.84c.21-.55.32-1.71.32-3.48V12.88c0-2.27-.23-3.67-.69-4.22-.64-.71-1.7-1.06-3.19-1.06h-1.27v-.98h27.74v7.88h-.64c-.19-.96-.39-1.74-.58-2.36-.19-.62-.42-1.13-.66-1.54-.25-.41-.53-.73-.85-.97s-.7-.46-1.14-.65c-.73-.27-1.97-.4-3.74-.4h-9.88Z"/>
      <path class="cls-2" d="M246.3,42.62h-9.61l-12.19-16.83c-.46.02-.87.03-1.23.04-.36,0-.69.01-.97.01-.23,0-.48,0-.74-.01-.27,0-.54-.02-.82-.04v10.46c0,2.27.25,3.67.74,4.22.67.78,1.68,1.17,3.03,1.17h1.41v.98h-15.42v-.98h1.35c1.5,0,2.59-.5,3.27-1.49.37-.55.56-1.85.56-3.9V12.99c0-2.27-.25-3.67-.74-4.22-.69-.78-1.72-1.17-3.08-1.17h-1.35v-.98h13.11c3.79,0,6.6.28,8.44.85.9.27,1.75.66,2.54,1.19.79.53,1.48,1.16,2.07,1.88.59.73,1.06,1.54,1.41,2.44.35.9.52,1.87.52,2.89,0,1.11-.18,2.15-.53,3.12-.35.96-.9,1.85-1.63,2.64s-1.66,1.49-2.77,2.07c-1.11.58-2.42,1.04-3.93,1.38l7.43,10.33c1.72,2.39,3.18,3.96,4.38,4.73,1.24.78,2.83,1.27,4.78,1.49v.98ZM220.74,24.11c.34,0,.63,0,.88.01.25,0,.45.01.61.01,1.72,0,3.23-.2,4.53-.6,1.3-.4,2.38-.95,3.25-1.66.87-.71,1.52-1.54,1.95-2.51.43-.96.65-2.01.65-3.15s-.19-2.14-.56-3.07-.9-1.73-1.58-2.4c-.68-.67-1.5-1.19-2.44-1.57s-1.99-.56-3.12-.56c-.51,0-1.11.04-1.81.12s-1.48.21-2.36.38v14.97Z"/>
      <path class="cls-2" d="M297.63,31.09l1.01.22-3.56,11.31h-32.26v-1.14h1.57c1.74,0,3-.57,3.78-1.72.43-.63.65-2.15.65-4.55V8.33c0-2.62-.29-4.25-.86-4.89-.8-.9-1.99-1.35-3.56-1.35h-1.57V.95h18.87v1.14c-1.13,0-2.06.05-2.81.15-.75.1-1.36.26-1.84.46-.48.21-.86.45-1.14.72-.28.28-.51.58-.69.91-.33.64-.49,2.2-.49,4.7v26.18c0,.72.03,1.33.08,1.84.05.51.14.94.26,1.28.12.34.29.61.49.83.2.22.47.38.8.51.49.21,2.09.31,4.79.31h3.04c3.17,0,5.42-.24,6.73-.71.66-.23,1.27-.53,1.84-.92.57-.39,1.13-.91,1.67-1.55.54-.65,1.08-1.43,1.6-2.35.52-.92,1.06-2.04,1.61-3.35Z"/>
      <path class="cls-2" d="M324.87,30.56h-13.94l-2.44,5.68c-.6,1.38-.9,2.42-.9,3.13,0,.28.05.54.15.78s.3.46.6.66c.3.2.73.37,1.27.5.55.13,1.27.23,2.15.31v.98h-11.34v-.98c1.49-.27,2.46-.61,2.92-1.04.46-.42.93-1.07,1.42-1.92.49-.86,1.01-1.94,1.58-3.25l12.66-29.63h.93l12.53,29.95c.51,1.24.99,2.23,1.42,2.99.43.75.88,1.34,1.34,1.75.46.42.96.7,1.5.86s1.18.26,1.93.29v.98h-14.2v-.98c.71-.04,1.3-.11,1.78-.24.48-.12.85-.28,1.13-.48.27-.19.47-.42.58-.66.11-.25.17-.52.17-.82.02-.39-.07-.89-.25-1.5-.19-.61-.46-1.34-.81-2.19l-2.18-5.18ZM324.13,28.6l-6.11-14.55-6.27,14.55h12.37Z"/>
      <path class="cls-2" d="M364.19,5.8v12.45h-.98c-.32-2.39-.89-4.29-1.73-5.71-.41-.71-.92-1.34-1.53-1.91-.61-.57-1.27-1.05-1.99-1.45-.72-.4-1.48-.71-2.28-.93-.81-.22-1.62-.33-2.43-.33-.9,0-1.74.16-2.52.46-.78.31-1.46.72-2.03,1.23-.57.51-1.02,1.1-1.34,1.77s-.48,1.35-.48,2.06c0,.99.23,1.85.69,2.59.46.73,1.09,1.41,1.9,2.03.8.62,1.75,1.22,2.84,1.81,1.09.58,2.27,1.21,3.54,1.88,1.43.76,2.8,1.5,4.09,2.23,1.29.73,2.43,1.53,3.41,2.4.98.88,1.77,1.88,2.35,3,.58,1.12.88,2.47.88,4.05,0,1.35-.28,2.62-.84,3.84-.56,1.21-1.34,2.27-2.34,3.19-1,.91-2.19,1.64-3.58,2.18-1.39.54-2.92.81-4.58.81-.62,0-1.15,0-1.59-.03-.44-.02-.87-.06-1.27-.12-.41-.06-.83-.16-1.26-.29-.43-.13-.95-.31-1.55-.54-.42-.16-.86-.31-1.3-.44-.44-.13-.85-.24-1.22-.33-.37-.09-.69-.16-.94-.21s-.42-.08-.49-.08c-.44,0-.79.13-1.05.4s-.45.81-.57,1.65h-.98v-12.34h.98c.23,1.29.5,2.42.81,3.38.31.96.66,1.77,1.05,2.43.39.64.89,1.23,1.51,1.78.62.55,1.31,1.02,2.08,1.42.77.4,1.6.71,2.5.93.89.22,1.81.33,2.75.33,1.11,0,2.11-.16,3-.48.88-.32,1.64-.75,2.26-1.29.62-.54,1.09-1.17,1.42-1.88.33-.72.49-1.46.49-2.24,0-1.15-.24-2.12-.72-2.91-.48-.79-1.12-1.49-1.93-2.11-.81-.62-1.74-1.21-2.81-1.78-1.07-.57-2.2-1.2-3.38-1.91-1.35-.8-2.64-1.55-3.89-2.27-1.25-.72-2.35-1.5-3.3-2.36-.96-.86-1.72-1.84-2.3-2.93-.58-1.1-.86-2.41-.86-3.93,0-1.27.27-2.49.8-3.64.53-1.15,1.27-2.16,2.2-3.03.94-.87,2.05-1.55,3.33-2.06,1.28-.5,2.69-.76,4.21-.76,1.88,0,3.9.47,6.08,1.41.96.44,1.65.66,2.1.66s.84-.14,1.13-.41c.29-.27.53-.83.7-1.66h.98Z"/>
      <path class="cls-2" d="M380.86,8.58v14.23h7.91c1.15,0,2.08-.1,2.8-.31.72-.2,1.28-.52,1.69-.96.41-.43.69-.98.85-1.63.16-.65.27-1.43.32-2.34h.98v12.53h-.98c-.12-.88-.25-1.61-.37-2.16-.12-.56-.25-.96-.37-1.21-.16-.32-.36-.6-.61-.84-.25-.24-.57-.45-.96-.62-.39-.18-.86-.31-1.41-.4-.55-.09-1.19-.13-1.94-.13h-7.91v11.87c0,1.58.07,2.55.21,2.92.07.16.16.31.27.45.11.14.26.26.46.36.2.1.47.17.8.23s.74.08,1.23.08h6.11c1.04,0,1.92-.03,2.62-.09.7-.06,1.31-.17,1.83-.32.52-.15.98-.36,1.38-.64.4-.27.82-.62,1.26-1.05.55-.53,1.11-1.21,1.67-2.04.57-.83,1.13-1.81,1.7-2.92h1.06l-3.11,9.03h-27.74v-.98h1.27c.34,0,.69-.04,1.06-.11.37-.07.72-.19,1.05-.35s.62-.36.89-.6.45-.52.56-.84c.21-.55.32-1.71.32-3.48V12.88c0-2.27-.23-3.67-.69-4.22-.64-.71-1.7-1.06-3.19-1.06h-1.27v-.98h27.74v7.88h-.64c-.19-.96-.39-1.74-.58-2.36-.19-.62-.42-1.13-.66-1.54-.25-.41-.53-.73-.85-.97s-.7-.46-1.14-.65c-.73-.27-1.97-.4-3.74-.4h-9.88Z"/>
      <path class="cls-2" d="M439.45,42.62h-9.61l-12.19-16.83c-.46.02-.87.03-1.23.04-.36,0-.69.01-.97.01-.23,0-.48,0-.74-.01-.27,0-.54-.02-.82-.04v10.46c0,2.27.25,3.67.74,4.22.67.78,1.68,1.17,3.03,1.17h1.41v.98h-15.42v-.98h1.35c1.5,0,2.59-.5,3.27-1.49.37-.55.56-1.85.56-3.9V12.99c0-2.27-.25-3.67-.74-4.22-.69-.78-1.72-1.17-3.08-1.17h-1.35v-.98h13.11c3.79,0,6.6.28,8.44.85.9.27,1.75.66,2.54,1.19.79.53,1.48,1.16,2.07,1.88.59.73,1.06,1.54,1.41,2.44.35.9.52,1.87.52,2.89,0,1.11-.18,2.15-.53,3.12-.35.96-.9,1.85-1.63,2.64s-1.66,1.49-2.77,2.07c-1.11.58-2.42,1.04-3.93,1.38l7.43,10.33c1.72,2.39,3.18,3.96,4.38,4.73,1.24.78,2.83,1.27,4.78,1.49v.98ZM413.88,24.11c.34,0,.63,0,.88.01.25,0,.45.01.61.01,1.72,0,3.23-.2,4.53-.6,1.3-.4,2.38-.95,3.25-1.66.87-.71,1.52-1.54,1.95-2.51.43-.96.65-2.01.65-3.15s-.19-2.14-.56-3.07-.9-1.73-1.58-2.4c-.68-.67-1.5-1.19-2.44-1.57s-1.99-.56-3.12-.56c-.51,0-1.11.04-1.81.12s-1.48.21-2.36.38v14.97Z"/>
      <path class="cls-2" d="M492.59,0l.95,14.16h-.95c-.64-2.11-1.41-3.92-2.32-5.44-.91-1.52-1.95-2.75-3.12-3.72-1.17-.96-2.46-1.67-3.87-2.12-1.41-.45-2.95-.68-4.61-.68-2.79,0-5.25.68-7.41,2.04-2.15,1.36-3.86,3.46-5.13,6.28-.7,1.56-1.23,3.32-1.6,5.3-.37,1.98-.55,4.19-.55,6.65,0,3.75.6,7.02,1.81,9.8.61,1.41,1.39,2.65,2.32,3.72.93,1.07,1.99,1.96,3.18,2.67,1.19.72,2.48,1.26,3.89,1.63,1.4.37,2.86.55,4.38.55,1.72,0,3.21-.17,4.46-.52,1.25-.35,2.39-.88,3.41-1.6,1.02-.72,2.01-1.62,2.96-2.7.95-1.09,2-2.36,3.15-3.81l.95.61c-1.04,1.84-2.17,3.44-3.38,4.79-1.21,1.35-2.52,2.47-3.93,3.35-1.41.88-2.94,1.53-4.59,1.95-1.65.42-3.43.63-5.33.63-6.92,0-12.27-2.56-16.04-7.68-2.83-3.81-4.24-8.3-4.24-13.46,0-2.48.34-4.88,1.01-7.21.68-2.32,1.72-4.47,3.13-6.44.98-1.39,2.1-2.64,3.36-3.73,1.26-1.1,2.62-2.02,4.09-2.77,1.46-.75,3.01-1.32,4.62-1.71,1.62-.39,3.28-.58,4.98-.58,3.01,0,5.98.74,8.91,2.21.9.47,1.52.7,1.84.68.66,0,1.2-.27,1.64-.81s.75-1.23.94-2.07h1.08Z"/>
      <path class="cls-2" d="M527.84,32.66l.88.19-3.08,9.77h-27.87v-.98h1.35c1.5,0,2.59-.5,3.27-1.49.37-.55.56-1.86.56-3.93V12.99c0-2.27-.25-3.67-.74-4.22-.69-.78-1.72-1.17-3.08-1.17h-1.35v-.98h16.3v.98c-.97,0-1.78.04-2.43.13-.65.09-1.18.22-1.59.4-.42.18-.74.38-.98.62-.24.24-.44.5-.6.78-.28.55-.42,1.9-.42,4.06v22.62c0,.62.02,1.15.07,1.59.04.44.12.81.23,1.1s.25.53.42.72c.18.19.41.33.69.44.42.18,1.81.27,4.14.27h2.63c2.74,0,4.68-.2,5.81-.61.57-.19,1.1-.46,1.59-.8.5-.34.98-.78,1.45-1.34s.93-1.23,1.38-2.03c.45-.8.92-1.76,1.39-2.89Z"/>
      <path class="cls-2" d="M541.24,8.58v14.23h7.91c1.15,0,2.08-.1,2.8-.31.72-.2,1.28-.52,1.69-.96.41-.43.69-.98.85-1.63.16-.65.27-1.43.32-2.34h.98v12.53h-.98c-.12-.88-.25-1.61-.37-2.16-.12-.56-.25-.96-.37-1.21-.16-.32-.36-.6-.61-.84-.25-.24-.57-.45-.96-.62-.39-.18-.86-.31-1.41-.4-.55-.09-1.19-.13-1.94-.13h-7.91v11.87c0,1.58.07,2.55.21,2.92.07.16.16.31.27.45.11.14.26.26.46.36.2.1.47.17.8.23s.74.08,1.23.08h6.11c1.04,0,1.92-.03,2.62-.09.7-.06,1.31-.17,1.83-.32.52-.15.98-.36,1.38-.64.4-.27.82-.62,1.26-1.05.55-.53,1.11-1.21,1.67-2.04.57-.83,1.13-1.81,1.7-2.92h1.06l-3.11,9.03h-27.74v-.98h1.27c.34,0,.69-.04,1.06-.11.37-.07.72-.19,1.05-.35s.62-.36.89-.6.45-.52.56-.84c.21-.55.32-1.71.32-3.48V12.88c0-2.27-.23-3.67-.69-4.22-.64-.71-1.7-1.06-3.19-1.06h-1.27v-.98h27.74v7.88h-.64c-.19-.96-.39-1.74-.58-2.36-.19-.62-.42-1.13-.66-1.54-.25-.41-.53-.73-.85-.97s-.7-.46-1.14-.65c-.73-.27-1.97-.4-3.74-.4h-9.88Z"/>
      <path class="cls-2" d="M587.97,30.56h-13.94l-2.44,5.68c-.6,1.38-.9,2.42-.9,3.13,0,.28.05.54.15.78s.3.46.6.66c.3.2.73.37,1.27.5.55.13,1.27.23,2.15.31v.98h-11.34v-.98c1.49-.27,2.46-.61,2.92-1.04.46-.42.93-1.07,1.42-1.92.49-.86,1.01-1.94,1.58-3.25l12.66-29.63h.93l12.53,29.95c.51,1.24.99,2.23,1.42,2.99.43.75.88,1.34,1.34,1.75.46.42.96.7,1.5.86s1.18.26,1.93.29v.98h-14.2v-.98c.71-.04,1.3-.11,1.78-.24.48-.12.85-.28,1.13-.48.27-.19.47-.42.58-.66.11-.25.17-.52.17-.82.02-.39-.07-.89-.25-1.5-.19-.61-.46-1.34-.81-2.19l-2.18-5.18ZM587.22,28.6l-6.11-14.55-6.27,14.55h12.37Z"/>
      <path class="cls-2" d="M601.64,6.62h9.77l22.01,27V12.86c0-2.21-.25-3.59-.74-4.14-.67-.74-1.71-1.11-3.11-1.11h-1.25v-.98h12.53v.98h-1.27c-1.52,0-2.6.46-3.24,1.38-.39.55-.58,1.84-.58,3.88v30.34h-.96l-23.73-28.99v22.17c0,2.21.24,3.59.72,4.14.65.74,1.69,1.11,3.11,1.11h1.27v.98h-12.53v-.98h1.25c1.54,0,2.63-.46,3.27-1.38.39-.55.58-1.84.58-3.88V11.34c-.53-.62-.97-1.11-1.33-1.49-.35-.37-.69-.68-1.01-.92s-.66-.43-1.04-.58c-.37-.15-.83-.32-1.38-.52-.51-.16-1.29-.24-2.34-.24v-.98Z"/>
      <path class="cls-2" d="M658.4,41.63v.98h-15.42v-.98h1.27c1.5,0,2.58-.43,3.24-1.3.42-.55.64-1.91.64-4.09V12.99c0-.85-.02-1.54-.05-2.07-.04-.53-.1-.97-.2-1.31s-.24-.61-.42-.81c-.19-.19-.44-.38-.76-.56-.78-.42-1.59-.64-2.44-.64h-1.27v-.98h15.42v.98h-1.3c-1.49,0-2.56.43-3.21,1.3-.44.55-.66,1.91-.66,4.09v23.26c0,.85.02,1.54.05,2.07.03.53.1.96.2,1.3.1.34.24.61.44.81.19.2.45.39.77.57.76.42,1.57.64,2.42.64h1.3Z"/>
      <path class="cls-2" d="M659.01,6.62h9.77l22.01,27V12.86c0-2.21-.25-3.59-.74-4.14-.67-.74-1.71-1.11-3.11-1.11h-1.25v-.98h12.53v.98h-1.27c-1.52,0-2.6.46-3.24,1.38-.39.55-.58,1.84-.58,3.88v30.34h-.96l-23.73-28.99v22.17c0,2.21.24,3.59.72,4.14.65.74,1.69,1.11,3.11,1.11h1.27v.98h-12.53v-.98h1.25c1.54,0,2.63-.46,3.27-1.38.39-.55.58-1.84.58-3.88V11.34c-.53-.62-.97-1.11-1.33-1.49-.35-.37-.69-.68-1.01-.92s-.66-.43-1.04-.58c-.37-.15-.83-.32-1.38-.52-.51-.16-1.29-.24-2.34-.24v-.98Z"/>
      <path class="cls-2" d="M732.36,5.8l.93,11.36h-.93c-.92-2.81-2.13-4.95-3.64-6.4-2.16-2.07-4.91-3.11-8.26-3.11-4.58,0-8.07,1.81-10.46,5.44-2,3.06-3,6.71-3,10.94,0,3.43.66,6.57,1.99,9.4.58,1.26,1.28,2.39,2.1,3.4.81,1.01,1.73,1.87,2.73,2.58,1.01.71,2.1,1.26,3.28,1.65,1.18.39,2.42.58,3.73.58s2.61-.17,3.84-.5c1.23-.34,2.43-.83,3.6-1.49v-10.41c0-.92-.04-1.66-.11-2.22-.07-.56-.17-1-.31-1.34-.13-.34-.31-.59-.53-.77-.22-.18-.47-.34-.76-.48-.57-.3-1.58-.45-3.03-.45v-1.01h13.94v1.01h-.66c-.6,0-1.11.07-1.54.2s-.77.38-1.05.76-.47.9-.6,1.59c-.12.69-.19,1.59-.19,2.71v11.02c-1.06.57-2.09,1.05-3.08,1.45-.99.4-2,.73-3.01.98-1.02.26-2.06.45-3.13.57-1.07.12-2.21.19-3.41.19-6.96,0-12.24-2.23-15.85-6.69-2.71-3.34-4.06-7.2-4.06-11.57,0-1.22.12-2.45.37-3.68.25-1.23.6-2.43,1.06-3.6.46-1.17,1.03-2.29,1.7-3.36.67-1.07,1.42-2.06,2.26-2.96,1.77-1.98,3.79-3.44,6.07-4.38,2.27-.94,4.81-1.41,7.61-1.41.83,0,1.56.03,2.18.09.62.06,1.22.16,1.81.29s1.2.31,1.84.53c.65.22,1.41.49,2.3.81.97.37,1.64.56,1.99.56.34,0,.62-.15.86-.46.24-.31.39-.92.44-1.82h.98Z"/>
    </g>
    <g>
      <path class="cls-2" d="M159.33,585.94c-4.19-3.44-6.87-6.17-8.06-8.22-1.19-2.04-1.78-4.19-1.78-6.43,0-1.68.35-3.27,1.05-4.79.7-1.51,1.67-2.84,2.93-3.99,1.25-1.15,2.77-2.06,4.55-2.73,1.78-.67,3.76-1.01,5.93-1.01s4,.32,5.74.95c1.73.63,3.22,1.47,4.46,2.52,1.24,1.05,2.2,2.25,2.89,3.62.68,1.37,1.03,2.78,1.03,4.22,0,1.96-.7,3.97-2.09,6.01-1.39,2.07-4.3,4.47-8.72,7.21,2.27,1.78,4.16,3.36,5.66,4.73,1.5,1.37,2.62,2.56,3.37,3.57,1.96,2.61,2.95,5.39,2.95,8.33,0,1.83-.37,3.56-1.1,5.17-.74,1.61-1.78,3.04-3.12,4.26-1.34,1.23-2.96,2.2-4.84,2.91-1.89.71-3.97,1.07-6.24,1.07s-4.21-.35-6.05-1.05c-1.83-.7-3.42-1.63-4.75-2.81-1.33-1.18-2.36-2.54-3.1-4.11-.74-1.56-1.1-3.21-1.1-4.94,0-2.3.78-4.6,2.33-6.9.8-1.16,1.87-2.37,3.2-3.62,1.33-1.25,2.96-2.58,4.9-3.97ZM161.15,587.41c-1.86,1.55-3.32,3.27-4.38,5.15-.67,1.16-1.16,2.38-1.47,3.66s-.47,2.62-.47,4.01c0,1.65.24,3.16.72,4.51.48,1.36,1.14,2.51,2,3.47.85.96,1.87,1.7,3.06,2.23,1.19.53,2.49.79,3.91.79s2.66-.21,3.8-.64c1.14-.43,2.11-1.01,2.91-1.74.8-.74,1.42-1.59,1.86-2.58.44-.98.66-2.03.66-3.14,0-1.83-.49-3.5-1.47-5-1.78-2.71-5.49-6.29-11.12-10.74ZM165.41,581.79c3.1-2.79,5.06-4.99,5.89-6.59.83-1.65,1.24-3.49,1.24-5.5,0-2.74-.76-4.87-2.27-6.39-1.51-1.52-3.6-2.29-6.26-2.29-1.32,0-2.52.21-3.6.62-1.08.41-2.02.97-2.81,1.67-.79.7-1.4,1.51-1.84,2.44-.44.93-.66,1.9-.66,2.91,0,1.34.34,2.68,1.03,4.01.68,1.33,1.66,2.62,2.93,3.86l6.36,5.27Z"/>
      <path class="cls-2" d="M193.08,565.01l12.79-6.24h1.28v44.37c0,1.52.03,2.72.08,3.58.05.87.14,1.53.27,2,.13.47.32.8.58,1.01.26.21.58.4.97.58.8.41,2.38.63,4.73.66v1.43h-19.76v-1.43c1.27-.03,2.28-.09,3.04-.19.76-.1,1.36-.25,1.8-.43.44-.18.76-.4.97-.66.21-.26.37-.54.5-.85.28-.7.43-2.6.43-5.7v-28.37c0-3.88-.13-6.33-.39-7.36-.21-.83-.54-1.43-1.01-1.82s-1.03-.58-1.71-.58c-.98,0-2.31.4-3.99,1.2l-.58-1.2Z"/>
      <path class="cls-2" d="M260.4,593.03v5.5h-7.05v13.87h-6.39v-13.87h-22.25v-4.96l24.38-34.8h4.26v34.26h7.05ZM246.95,593.03v-26.08l-18.45,26.08h18.45Z"/>
      <path class="cls-2" d="M266.37,591.67h20.04v5.85h-20.04v-5.85Z"/>
      <path class="cls-2" d="M325.97,602.29l-3.68,10.11h-31v-1.43c4.57-4.19,8.46-7.96,11.66-11.34,3.2-3.37,5.74-6.39,7.6-9.05,3.72-5.27,5.58-10.09,5.58-14.46,0-1.65-.28-3.18-.83-4.59-.56-1.41-1.3-2.62-2.25-3.62-.94-1.01-2.05-1.8-3.31-2.36-1.27-.57-2.6-.85-3.99-.85-1.29,0-2.53.19-3.7.56-1.18.37-2.26.94-3.26,1.69-1,.75-1.88,1.68-2.66,2.79-.78,1.11-1.41,2.4-1.9,3.88h-1.43c.34-2.4.93-4.52,1.78-6.36.85-1.83,1.92-3.38,3.22-4.65,1.29-1.27,2.78-2.22,4.46-2.87,1.68-.65,3.53-.97,5.54-.97,2.12,0,4.09.37,5.93,1.12,1.83.75,3.42,1.76,4.75,3.02,1.33,1.27,2.38,2.73,3.14,4.4.76,1.67,1.14,3.42,1.14,5.25,0,2.66-.62,5.32-1.86,7.98-1.89,4.16-4.99,8.59-9.3,13.29-3.23,3.54-5.85,6.36-7.85,8.47-2,2.11-3.4,3.52-4.2,4.24h13.72c1.73,0,3.19-.04,4.38-.12,1.19-.08,2.2-.26,3.02-.56.83-.3,1.54-.72,2.13-1.28.59-.56,1.18-1.32,1.74-2.31h1.43Z"/>
      <path class="cls-2" d="M365.66,602.29l-3.68,10.11h-31v-1.43c4.57-4.19,8.46-7.96,11.66-11.34,3.2-3.37,5.74-6.39,7.6-9.05,3.72-5.27,5.58-10.09,5.58-14.46,0-1.65-.28-3.18-.83-4.59-.56-1.41-1.3-2.62-2.25-3.62-.94-1.01-2.05-1.8-3.31-2.36-1.27-.57-2.6-.85-3.99-.85-1.29,0-2.53.19-3.7.56-1.18.37-2.26.94-3.26,1.69-1,.75-1.88,1.68-2.66,2.79-.78,1.11-1.41,2.4-1.9,3.88h-1.43c.34-2.4.93-4.52,1.78-6.36.85-1.83,1.92-3.38,3.22-4.65,1.29-1.27,2.78-2.22,4.46-2.87,1.68-.65,3.53-.97,5.54-.97,2.12,0,4.09.37,5.93,1.12,1.83.75,3.42,1.76,4.75,3.02,1.33,1.27,2.38,2.73,3.14,4.4.76,1.67,1.14,3.42,1.14,5.25,0,2.66-.62,5.32-1.86,7.98-1.89,4.16-4.99,8.59-9.3,13.29-3.23,3.54-5.85,6.36-7.85,8.47-2,2.11-3.4,3.52-4.2,4.24h13.72c1.73,0,3.19-.04,4.38-.12,1.19-.08,2.2-.26,3.02-.56.83-.3,1.54-.72,2.13-1.28.59-.56,1.18-1.32,1.74-2.31h1.43Z"/>
      <path class="cls-2" d="M378.25,565.01l12.79-6.24h1.28v44.37c0,1.52.03,2.72.08,3.58.05.87.14,1.53.27,2,.13.47.32.8.58,1.01.26.21.58.4.97.58.8.41,2.38.63,4.73.66v1.43h-19.76v-1.43c1.27-.03,2.28-.09,3.04-.19.76-.1,1.36-.25,1.8-.43.44-.18.76-.4.97-.66.21-.26.37-.54.5-.85.28-.7.43-2.6.43-5.7v-28.37c0-3.88-.13-6.33-.39-7.36-.21-.83-.54-1.43-1.01-1.82s-1.03-.58-1.71-.58c-.98,0-2.31.4-3.99,1.2l-.58-1.2Z"/>
      <path class="cls-2" d="M411.85,591.67h20.04v5.85h-20.04v-5.85Z"/>
      <path class="cls-2" d="M439.25,613.49v-1.43c1.96-.08,3.76-.34,5.41-.78,1.64-.44,3.17-1.08,4.59-1.92,1.42-.84,2.76-1.89,4.03-3.14,1.27-1.25,2.51-2.73,3.72-4.44,2.74-3.8,4.62-7.94,5.66-12.44-4.08,2.61-7.75,3.91-11.01,3.91-1.83,0-3.57-.37-5.21-1.12-1.64-.75-3.07-1.81-4.28-3.18-1.21-1.37-2.18-3.02-2.89-4.94-.71-1.92-1.07-4.06-1.07-6.41s.39-4.66,1.18-6.92c.79-2.26,1.9-4.27,3.33-6.03,1.43-1.76,3.16-3.18,5.17-4.26,2.02-1.09,4.25-1.63,6.7-1.63s4.75.6,6.8,1.8c2.05,1.2,3.82,2.81,5.29,4.82s2.62,4.33,3.43,6.94c.81,2.61,1.22,5.32,1.22,8.14,0,2.38-.25,4.71-.76,7-.5,2.29-1.23,4.49-2.19,6.61-.96,2.12-2.13,4.13-3.51,6.03-1.38,1.9-2.94,3.66-4.67,5.29-1.34,1.21-2.73,2.31-4.17,3.29-1.43.98-2.93,1.83-4.48,2.56-1.55.72-3.17,1.28-4.86,1.67-1.69.39-3.44.58-5.25.58h-2.21ZM463.28,586.48c.47-3.36.7-6.05.7-8.06,0-1.11-.1-2.31-.29-3.58s-.48-2.56-.85-3.84c-.38-1.28-.85-2.5-1.41-3.66s-1.23-2.2-1.98-3.1c-.75-.9-1.6-1.62-2.56-2.15-.96-.53-2-.79-3.14-.79s-2.22.26-3.26.78c-1.03.52-1.95,1.29-2.75,2.31-.8,1.02-1.44,2.31-1.92,3.86-.48,1.55-.72,3.35-.72,5.39,0,2.3.22,4.43.66,6.39.44,1.96,1.08,3.66,1.92,5.1.84,1.43,1.85,2.56,3.04,3.39,1.19.83,2.53,1.24,4.03,1.24.57,0,1.22-.08,1.96-.23.74-.15,1.49-.37,2.27-.64s1.54-.61,2.29-1.01c.75-.4,1.42-.86,2.02-1.38Z"/>
      <path class="cls-2" d="M511.69,593.03v5.5h-7.05v13.87h-6.39v-13.87h-22.25v-4.96l24.38-34.8h4.26v34.26h7.05ZM498.24,593.03v-26.08l-18.45,26.08h18.45Z"/>
      <path class="cls-2" d="M529.67,585.94c-4.19-3.44-6.87-6.17-8.06-8.22-1.19-2.04-1.78-4.19-1.78-6.43,0-1.68.35-3.27,1.05-4.79.7-1.51,1.67-2.84,2.93-3.99,1.25-1.15,2.77-2.06,4.55-2.73,1.78-.67,3.76-1.01,5.93-1.01s4,.32,5.74.95c1.73.63,3.22,1.47,4.46,2.52,1.24,1.05,2.2,2.25,2.89,3.62.68,1.37,1.03,2.78,1.03,4.22,0,1.96-.7,3.97-2.09,6.01-1.39,2.07-4.3,4.47-8.72,7.21,2.27,1.78,4.16,3.36,5.66,4.73,1.5,1.37,2.62,2.56,3.37,3.57,1.96,2.61,2.95,5.39,2.95,8.33,0,1.83-.37,3.56-1.1,5.17-.74,1.61-1.78,3.04-3.12,4.26-1.34,1.23-2.96,2.2-4.84,2.91-1.89.71-3.97,1.07-6.24,1.07s-4.21-.35-6.05-1.05c-1.83-.7-3.42-1.63-4.75-2.81-1.33-1.18-2.36-2.54-3.1-4.11-.74-1.56-1.1-3.21-1.1-4.94,0-2.3.78-4.6,2.33-6.9.8-1.16,1.87-2.37,3.2-3.62,1.33-1.25,2.96-2.58,4.9-3.97ZM531.49,587.41c-1.86,1.55-3.32,3.27-4.38,5.15-.67,1.16-1.16,2.38-1.47,3.66s-.47,2.62-.47,4.01c0,1.65.24,3.16.72,4.51.48,1.36,1.14,2.51,2,3.47.85.96,1.87,1.7,3.06,2.23,1.19.53,2.49.79,3.91.79s2.66-.21,3.8-.64c1.14-.43,2.11-1.01,2.91-1.74.8-.74,1.42-1.59,1.86-2.58.44-.98.66-2.03.66-3.14,0-1.83-.49-3.5-1.47-5-1.78-2.71-5.49-6.29-11.12-10.74ZM535.75,581.79c3.1-2.79,5.06-4.99,5.89-6.59.83-1.65,1.24-3.49,1.24-5.5,0-2.74-.76-4.87-2.27-6.39-1.51-1.52-3.6-2.29-6.26-2.29-1.32,0-2.52.21-3.6.62-1.08.41-2.02.97-2.81,1.67-.79.7-1.4,1.51-1.84,2.44-.44.93-.66,1.9-.66,2.91,0,1.34.34,2.68,1.03,4.01.68,1.33,1.66,2.62,2.93,3.86l6.36,5.27Z"/>
      <path class="cls-2" d="M588.58,559.85l-3.02,6.59h-15.81l-3.45,7.05c6.85,1.01,12.27,3.55,16.28,7.63,3.44,3.51,5.15,7.65,5.15,12.4,0,2.71-.57,5.27-1.71,7.67-1.11,2.35-2.52,4.35-4.22,6.01-1.71,1.65-3.6,2.98-5.7,3.99-2.95,1.42-5.99,2.13-9.15,2.13-1.6,0-2.98-.15-4.13-.45-1.15-.3-2.09-.69-2.81-1.18-.72-.49-1.25-1.05-1.59-1.67-.34-.62-.5-1.24-.5-1.86,0-.72.3-1.36.89-1.92.59-.56,1.34-.83,2.25-.83.34,0,.64.02.91.06.27.04.56.12.85.25.3.13.65.32,1.05.56.4.25.91.59,1.53,1.03,1.91,1.34,3.88,2.02,5.89,2.02,1.5,0,2.93-.3,4.3-.91,1.37-.61,2.58-1.45,3.62-2.52,1.05-1.07,1.89-2.33,2.52-3.76.63-1.43.95-2.96.95-4.59,0-3.18-1.02-6.14-3.06-8.87-2.07-2.76-4.88-4.9-8.45-6.39-2.79-1.14-6.63-1.81-11.51-2.02l10.08-20.42h18.84Z"/>
    </g>
    <g>
      <path class="cls-2" d="M110.43,425.69l-5.2-4.7,1.64-15.06c-.26-.22-.49-.41-.69-.58s-.38-.33-.53-.47c-.12-.11-.26-.24-.4-.37-.14-.13-.28-.28-.43-.42l-5.11,5.65c-1.11,1.23-1.66,2.11-1.66,2.65-.02.75.34,1.45,1.06,2.11l.76.69-.48.53-8.34-7.54.48-.53.73.66c.81.74,1.64,1,2.49.79.47-.11,1.21-.73,2.21-1.84l11.37-12.57c1.11-1.22,1.66-2.11,1.66-2.65,0-.76-.36-1.47-1.09-2.14l-.73-.66.48-.53,7.09,6.41c2.05,1.85,3.43,3.38,4.15,4.59.36.59.62,1.21.79,1.89.17.67.23,1.35.2,2.03s-.18,1.35-.43,2.01c-.25.66-.63,1.26-1.13,1.82-.54.6-1.15,1.08-1.81,1.43-.66.35-1.39.56-2.17.63s-1.62,0-2.51-.24c-.89-.23-1.82-.62-2.8-1.17l-1.03,9.22c-.24,2.13-.22,3.7.06,4.7.29,1.03.91,2.07,1.86,3.14l-.48.53ZM105.65,403.19c.18.16.34.31.47.44.13.13.24.23.32.31.93.84,1.84,1.47,2.74,1.89s1.75.65,2.57.69c.81.04,1.58-.09,2.28-.4s1.34-.77,1.89-1.38c.55-.6.94-1.25,1.2-1.93s.36-1.37.32-2.07c-.04-.7-.22-1.38-.55-2.04s-.8-1.27-1.41-1.83c-.28-.25-.62-.52-1.03-.82s-.9-.61-1.47-.95l-7.32,8.1Z"/>
      <path class="cls-2" d="M141.71,417.83l.44-.56,7.32,5.72-.44.56-.78-.61c-.81-.64-1.7-.78-2.67-.45-.47.16-1.15.81-2.04,1.94l-6.56,8.38c-1.61,2.06-3.08,3.51-4.41,4.34-.84.53-1.72.87-2.61,1.02s-1.8.13-2.7-.04c-.9-.17-1.8-.47-2.69-.91-.89-.44-1.75-.99-2.58-1.64-2.25-1.76-3.65-3.49-4.22-5.19-.36-1.07-.53-2.03-.5-2.89.02-.86.2-1.69.52-2.49s.78-1.61,1.38-2.44c.59-.82,1.29-1.74,2.08-2.76l6.32-8.08c.5-.64.87-1.2,1.1-1.67.23-.47.34-.89.34-1.26s-.12-.7-.34-1c-.22-.3-.52-.6-.9-.9l-.78-.61.44-.56,8.93,6.99-.44.56-.79-.62c-.49-.38-.93-.62-1.33-.71s-.78-.07-1.14.08c-.36.15-.71.39-1.06.74-.35.35-.71.77-1.09,1.26l-7.05,9.01c-.4.51-.78,1.02-1.13,1.54-.36.52-.67,1.05-.94,1.58-.27.53-.49,1.07-.65,1.6s-.25,1.07-.27,1.62c-.03.86.16,1.71.57,2.55.42.84,1.14,1.67,2.18,2.48.67.52,1.37.95,2.11,1.27.74.32,1.47.55,2.2.67.73.12,1.43.14,2.11.05.67-.09,1.29-.28,1.84-.59,1.12-.61,2.54-2.02,4.26-4.21l6.55-8.37c1.02-1.3,1.51-2.22,1.47-2.76-.05-.76-.46-1.44-1.24-2.05l-.78-.61Z"/>
      <path class="cls-2" d="M164.74,432.56l-5.11,7.5-.59-.4c.79-1.57,1.22-2.95,1.3-4.15.05-.59,0-1.19-.13-1.78-.14-.59-.34-1.15-.61-1.69-.27-.53-.6-1.03-.99-1.5-.39-.46-.84-.86-1.33-1.2-.54-.37-1.11-.62-1.71-.76-.6-.13-1.17-.16-1.73-.09-.56.07-1.07.24-1.53.51-.46.27-.84.62-1.13,1.04-.41.6-.62,1.21-.65,1.84-.02.63.08,1.3.31,2,.23.7.55,1.45.97,2.25.42.8.87,1.66,1.36,2.59.55,1.05,1.07,2.05,1.55,3.02.48.97.84,1.92,1.07,2.85.23.93.29,1.85.18,2.77-.11.92-.49,1.85-1.13,2.8-.55.81-1.25,1.47-2.08,1.97-.83.5-1.74.82-2.71.96-.98.14-1.99.09-3.05-.16-1.06-.25-2.09-.71-3.09-1.39-.37-.25-.69-.48-.95-.67s-.5-.39-.72-.59c-.22-.21-.43-.44-.64-.69-.21-.26-.44-.58-.71-.97-.19-.27-.39-.54-.6-.8-.21-.26-.41-.5-.6-.7-.19-.21-.35-.38-.48-.51-.13-.14-.22-.22-.26-.25-.27-.18-.53-.25-.79-.19-.26.05-.6.31-1.02.76l-.59-.4,5.07-7.44.59.4c-.39.87-.69,1.66-.9,2.37-.21.71-.33,1.34-.37,1.89-.03.54.03,1.11.18,1.69s.37,1.15.67,1.71.67,1.08,1.12,1.58c.45.5.95.94,1.52,1.33.67.46,1.34.77,2,.94.66.17,1.29.22,1.89.15.59-.07,1.14-.25,1.63-.55.49-.3.9-.68,1.22-1.15.47-.69.73-1.37.76-2.05s-.06-1.36-.29-2.06c-.23-.7-.55-1.45-.96-2.23-.41-.78-.83-1.63-1.25-2.54-.48-1.03-.95-2.02-1.41-2.96-.46-.94-.8-1.87-1.02-2.78-.22-.91-.28-1.81-.18-2.71.1-.9.47-1.8,1.09-2.72.52-.77,1.18-1.39,1.97-1.86.79-.47,1.65-.78,2.57-.92.92-.14,1.87-.09,2.85.13.98.22,1.93.65,2.85,1.27,1.13.77,2.16,1.88,3.08,3.34.39.66.72,1.08.99,1.26.28.19.56.26.85.22.29-.05.66-.28,1.11-.71l.59.4Z"/>
      <path class="cls-2" d="M186.83,446.73l-3.15,5.28-.38-.23c.33-.76.55-1.45.64-2.07.09-.62.06-1.17-.09-1.68-.15-.5-.42-.97-.82-1.39-.39-.42-.91-.82-1.54-1.2l-3.17-1.89-10.28,17.21c-.83,1.38-1.19,2.34-1.1,2.86.13.71.64,1.33,1.53,1.86l.78.47-.37.62-9.55-5.7.37-.61.8.48c.95.57,1.8.68,2.54.35.45-.2,1.05-.93,1.81-2.21l10.28-17.21-2.71-1.62c-.69-.41-1.31-.72-1.88-.92-.57-.2-1.11-.27-1.63-.21-.52.07-1.04.29-1.57.66-.53.38-1.09.94-1.68,1.68l-.63-.38,3.15-5.28,18.66,11.14Z"/>
      <path class="cls-2" d="M208.6,457.14c3.06,1.46,5.16,3.9,6.31,7.32,1.15,3.41.89,6.86-.78,10.35-1.72,3.6-4.28,6.04-7.68,7.33-3.4,1.29-6.72,1.17-9.94-.37-3.27-1.56-5.46-4.03-6.57-7.4s-.78-6.9.97-10.58c1.79-3.76,4.54-6.22,8.23-7.37,3.21-1,6.36-.76,9.46.72ZM207.66,458.25c-1.2-.57-2.39-.82-3.56-.76-1.18.07-2.31.42-3.39,1.07-1.09.65-2.12,1.57-3.1,2.76-.98,1.19-1.86,2.63-2.66,4.3-.79,1.66-1.36,3.27-1.69,4.81s-.42,2.96-.26,4.26c.16,1.3.57,2.45,1.24,3.44.67,1,1.61,1.79,2.84,2.37,1.09.52,2.21.8,3.35.83,1.14.03,2.26-.23,3.37-.78,1.11-.55,2.18-1.41,3.22-2.59,1.04-1.18,2.01-2.71,2.91-4.59.86-1.8,1.47-3.49,1.82-5.06.35-1.57.44-2.99.26-4.28-.18-1.29-.63-2.42-1.34-3.39-.71-.98-1.71-1.77-2.99-2.38Z"/>
      <path class="cls-2" d="M222.32,491.63l-.27.66-10.4-4.28.27-.66.86.35c1.01.42,1.86.42,2.54.02.44-.25.96-1.11,1.56-2.58l6.45-15.67c.24-.57.42-1.04.54-1.41s.2-.68.23-.94c.03-.26,0-.48-.06-.66-.07-.18-.19-.38-.36-.59-.41-.5-.9-.87-1.47-1.11l-.86-.35.27-.66,10.4,4.28-.27.66-.88-.36c-1-.41-1.84-.42-2.53-.01-.45.25-.98,1.1-1.58,2.57l-6.45,15.67c-.24.57-.42,1.04-.54,1.41-.12.37-.2.68-.23.93-.03.25,0,.48.07.67s.19.39.36.6c.39.5.88.86,1.45,1.1l.88.36Z"/>
      <path class="cls-2" d="M247.52,493.86l.56.34-4.5,5.96-19.15-6.81.24-.67.93.33c1.03.37,1.9.29,2.61-.22.39-.29.84-1.14,1.34-2.56l5.67-15.95c.55-1.56.73-2.58.52-3.08-.28-.7-.89-1.22-1.83-1.55l-.93-.33.24-.67,11.2,3.98-.24.67c-.67-.24-1.24-.41-1.7-.5s-.86-.14-1.19-.12c-.33.02-.6.08-.83.19s-.42.24-.6.39c-.33.31-.76,1.2-1.28,2.69l-5.52,15.53c-.15.43-.27.8-.34,1.11-.08.31-.12.59-.11.81,0,.23.04.42.12.6.08.17.2.33.37.47.25.23,1.17.62,2.78,1.19l1.8.64c1.88.67,3.27,1,4.14,1,.44,0,.87-.05,1.29-.16.42-.11.86-.3,1.32-.57.46-.27.94-.62,1.44-1.06.5-.44,1.06-.99,1.66-1.65Z"/>
      <path class="cls-2" d="M273.63,499.65l-9.83-2.57-2.77,3.56c-.68.86-1.08,1.54-1.21,2.04-.05.2-.07.39-.04.58s.12.38.3.58c.17.2.44.4.81.59s.85.4,1.46.61l-.18.69-7.99-2.09.18-.69c1.1.09,1.85.02,2.25-.19.4-.21.85-.58,1.36-1.09.5-.52,1.07-1.18,1.71-2l14.4-18.56.66.17,3.31,23.43c.13.97.28,1.76.45,2.37.17.61.37,1.11.62,1.48.25.38.55.67.9.89.35.21.79.4,1.3.56l-.18.69-10.02-2.62.18-.69c.51.11.94.16,1.3.16s.65-.04.88-.13c.23-.09.41-.21.53-.36s.22-.34.27-.55c.08-.27.12-.64.1-1.1-.02-.46-.07-1.03-.17-1.69l-.58-4.05ZM273.47,498.13l-1.62-11.39-7.1,9.1,8.72,2.28Z"/>
      <path class="cls-2" d="M287.03,485.18l7,1.28,12.24,22.25,2.72-14.89c.29-1.59.29-2.61.01-3.07-.38-.62-1.08-1.02-2.08-1.21l-.89-.16.13-.7,8.98,1.64-.13.7-.91-.17c-1.09-.2-1.93-.01-2.5.57-.35.34-.66,1.24-.93,2.7l-3.98,21.76-.69-.13-13.22-23.9-2.91,15.89c-.29,1.59-.3,2.61-.03,3.06.37.62,1.07,1.02,2.08,1.21l.91.17-.13.7-8.98-1.64.13-.7.89.16c1.1.2,1.94.01,2.52-.56.35-.34.66-1.24.93-2.7l3.28-17.95c-.3-.51-.55-.93-.76-1.24-.21-.31-.41-.58-.6-.79s-.42-.4-.67-.55c-.25-.16-.55-.34-.92-.55-.35-.18-.89-.34-1.64-.48l.13-.7Z"/>
      <path class="cls-2" d="M312.94,516.49l.08-.71.98.1c1.09.12,1.91-.15,2.46-.81.33-.38.57-1.31.73-2.8l1.8-16.86c.18-1.64.1-2.68-.21-3.12-.44-.62-1.15-.98-2.14-1.09l-.98-.1.08-.71,10.62,1.13c3.9.42,6.82,1.18,8.75,2.28,1.95,1.1,3.42,2.75,4.43,4.95,1.02,2.19,1.39,4.64,1.1,7.36-.21,1.92-.71,3.66-1.5,5.21-.8,1.55-1.87,2.84-3.22,3.87s-2.97,1.77-4.87,2.23-4.05.56-6.45.3l-11.66-1.25ZM320.59,515.4c1.57.53,2.91.86,4.04.98,1.48.16,2.87.03,4.2-.38,1.32-.41,2.5-1.07,3.53-1.98,1.03-.91,1.89-2.05,2.57-3.43.68-1.38,1.11-2.96,1.3-4.75.19-1.8.1-3.44-.26-4.93-.37-1.49-.96-2.79-1.78-3.9-.82-1.11-1.85-2-3.08-2.67-1.23-.68-2.61-1.1-4.14-1.26-.58-.06-1.2-.08-1.86-.05-.66.03-1.38.09-2.14.19l-2.37,22.19Z"/>
      <path class="cls-2" d="M360.41,507.85l-.12,7.64c-.03,1.65.14,2.68.49,3.09.48.58,1.22.87,2.21.89l1.01.02v.72s-11.25-.18-11.25-.18v-.72s1,.02,1,.02c.54,0,1.02-.07,1.43-.25.41-.17.73-.44.97-.8.26-.41.41-1.35.43-2.84l.27-16.95c.03-1.64-.13-2.67-.47-3.08-.49-.58-1.24-.87-2.23-.89l-.99-.02v-.72s9.63.16,9.63.16c2.33.04,4.18.31,5.54.83.67.26,1.29.6,1.86,1.02.57.42,1.08.92,1.5,1.49s.76,1.2,1,1.88c.24.69.35,1.43.34,2.21-.02,1.07-.21,2.05-.59,2.92-.38.88-.91,1.63-1.61,2.26-.7.63-1.56,1.11-2.57,1.45-1.01.34-2.16.5-3.45.48-1.29-.02-2.76-.23-4.4-.61ZM360.43,506.74c.69.14,1.3.25,1.82.32.52.07.97.11,1.34.12.67.01,1.31-.12,1.91-.39.6-.27,1.13-.65,1.59-1.14.45-.49.82-1.07,1.09-1.75.28-.68.42-1.43.43-2.24.02-.95-.11-1.81-.38-2.57-.27-.76-.65-1.4-1.15-1.93-.49-.53-1.08-.94-1.75-1.22-.67-.28-1.4-.43-2.19-.44-.34,0-.71.02-1.13.07-.42.05-.89.14-1.41.26l-.18,10.91Z"/>
      <path class="cls-2" d="M389.1,510.99l-10.15.4-1.62,4.21c-.4,1.02-.59,1.79-.57,2.31,0,.21.05.4.13.57.08.17.23.33.45.47.22.14.54.25.94.33s.93.13,1.57.16l.03.72-8.26.32-.03-.72c1.08-.24,1.77-.51,2.1-.84.32-.32.65-.8.98-1.44.33-.64.68-1.44,1.06-2.41l8.38-21.94.68-.03,9.98,21.45c.41.89.78,1.6,1.12,2.13.34.54.68.95,1.03,1.24.35.29.72.49,1.12.59s.87.15,1.41.16l.03.72-10.35.41-.03-.72c.51-.05.94-.12,1.29-.22s.61-.23.81-.38c.19-.15.33-.32.41-.5.08-.18.11-.38.1-.6,0-.28-.07-.65-.23-1.09-.15-.44-.37-.96-.65-1.57l-1.73-3.71ZM388.5,509.58l-4.86-10.42-4.15,10.78,9.01-.35Z"/>
      <path class="cls-2" d="M412.96,517.24l.07.71-11.19,1.04-.07-.71.93-.09c1.09-.1,1.85-.49,2.26-1.16.27-.43.33-1.43.19-3.01l-1.57-16.88c-.06-.62-.12-1.12-.18-1.5-.06-.38-.14-.7-.23-.94-.09-.24-.21-.43-.36-.56-.15-.13-.34-.25-.59-.35-.59-.26-1.2-.35-1.82-.3l-.92.09-.07-.71,11.19-1.04.07.71-.94.09c-1.08.1-1.83.49-2.24,1.16-.28.43-.35,1.43-.2,3.01l1.57,16.88c.06.62.12,1.12.18,1.5s.14.69.23.93c.09.24.22.42.37.56.16.13.35.26.6.36.58.26,1.18.36,1.8.3l.94-.09Z"/>
      <path class="cls-2" d="M410.57,492.08l7.04-1.05,18.76,17.11-2.22-14.97c-.24-1.6-.56-2.56-.98-2.91-.56-.46-1.35-.62-2.36-.47l-.9.13-.11-.71,9.03-1.34.1.71-.92.14c-1.1.16-1.83.61-2.19,1.34-.22.44-.22,1.39,0,2.86l3.25,21.88-.69.1-20.21-18.36,2.37,15.98c.24,1.6.56,2.56.96,2.91.55.47,1.34.62,2.36.47l.92-.14.11.71-9.03,1.34-.1-.71.9-.13c1.11-.16,1.85-.61,2.21-1.34.22-.44.22-1.39,0-2.86l-2.68-18.05c-.45-.39-.82-.7-1.12-.93-.3-.23-.57-.41-.83-.55-.26-.14-.53-.24-.81-.31s-.63-.14-1.05-.23c-.39-.06-.96-.03-1.71.08l-.11-.71Z"/>
      <path class="cls-2" d="M461.19,482.91l1.32,6.01-.44.1c-.28-.78-.6-1.43-.95-1.94-.36-.51-.76-.9-1.22-1.16-.45-.26-.97-.41-1.55-.45-.58-.04-1.22.02-1.94.18l-3.61.79,4.3,19.58c.35,1.58.73,2.52,1.16,2.84.58.43,1.38.53,2.39.31l.89-.2.15.7-10.87,2.39-.15-.7.91-.2c1.08-.24,1.78-.73,2.09-1.49.19-.45.13-1.4-.19-2.85l-4.3-19.58-3.08.68c-.78.17-1.45.38-2,.62-.55.24-1,.56-1.33.97s-.56.92-.69,1.56-.15,1.43-.07,2.37l-.72.16-1.32-6.01,21.22-4.67Z"/>
      <path class="cls-2" d="M504.01,497.44l-6.68,2.12-12.17-9.01c-.32.11-.6.21-.85.3-.25.09-.47.16-.67.22-.16.05-.33.1-.52.15s-.38.1-.58.15l2.3,7.27c.5,1.57.98,2.5,1.45,2.77.64.39,1.43.44,2.36.15l.98-.31.22.68-10.72,3.4-.22-.68.94-.3c1.05-.33,1.69-.92,1.94-1.75.14-.46-.02-1.41-.47-2.83l-5.12-16.16c-.5-1.57-.98-2.5-1.45-2.77-.65-.39-1.45-.43-2.4-.13l-.94.3-.22-.68,9.11-2.89c2.63-.83,4.65-1.26,6.05-1.27.69-.01,1.36.08,2.03.27.66.2,1.28.48,1.85.85.57.37,1.08.84,1.52,1.39.44.55.77,1.18,1,1.9.25.77.35,1.54.32,2.28-.03.75-.22,1.48-.55,2.19-.34.72-.83,1.4-1.47,2.05-.65.65-1.46,1.26-2.43,1.82l7.44,5.54c1.72,1.28,3.08,2.06,4.08,2.32,1.03.27,2.25.26,3.65-.02l.22.68ZM482.17,490.21c.23-.07.44-.14.61-.18.17-.05.32-.09.43-.13,1.19-.38,2.2-.85,3.01-1.41.82-.56,1.45-1.19,1.89-1.87.45-.68.71-1.41.8-2.17.09-.77,0-1.54-.24-2.33-.25-.77-.6-1.44-1.06-2.01-.46-.56-1-1-1.63-1.32-.62-.32-1.3-.5-2.04-.55-.74-.05-1.5.05-2.29.3-.36.11-.77.27-1.23.48-.46.21-.98.47-1.56.79l3.3,10.4Z"/>
      <path class="cls-2" d="M503.42,471.01l3.78,9.66,5.37-2.1c.78-.31,1.39-.62,1.82-.95.43-.33.73-.69.89-1.1.16-.4.21-.85.14-1.33s-.2-1.04-.41-1.67l.67-.26,3.33,8.5-.67.26c-.32-.57-.6-1.02-.83-1.37-.23-.35-.42-.59-.57-.72-.19-.17-.41-.31-.64-.41-.23-.1-.5-.15-.81-.17-.31-.02-.67.02-1.06.1-.4.09-.85.23-1.35.43l-5.37,2.1,3.15,8.05c.42,1.07.73,1.71.92,1.93.09.09.19.17.3.24.11.07.25.11.41.12.16.01.36,0,.6-.06.24-.05.52-.14.86-.27l4.14-1.62c.71-.28,1.29-.53,1.75-.76.46-.23.84-.46,1.16-.7.31-.24.57-.51.77-.8.2-.29.39-.64.58-1.05.23-.51.43-1.12.59-1.83.16-.71.29-1.53.38-2.43l.72-.28.29,6.95-18.83,7.37-.26-.67.86-.34c.23-.09.46-.21.69-.35.23-.15.44-.32.62-.51.18-.19.33-.41.44-.64.12-.23.17-.47.16-.72,0-.43-.24-1.24-.71-2.45l-6.22-15.87c-.6-1.54-1.13-2.43-1.59-2.68-.62-.31-1.44-.27-2.44.13l-.86.34-.26-.67,18.83-7.37,2.1,5.35-.43.17c-.39-.6-.73-1.08-1.02-1.45s-.58-.66-.86-.87c-.28-.21-.55-.35-.83-.43-.28-.08-.6-.12-.95-.14-.56.01-1.45.25-2.65.73l-6.7,2.62Z"/>
      <path class="cls-2" d="M543.21,480.89l-18.75-15.45,7.64,15.78c.7,1.45,1.3,2.28,1.79,2.49.67.28,1.46.19,2.39-.26l.84-.41.31.64-8.22,3.98-.31-.64.84-.41c1-.48,1.56-1.13,1.69-1.93.08-.48-.2-1.39-.85-2.73l-7.47-15.43c-.49-1.02-.98-1.72-1.45-2.1-.17-.13-.35-.24-.56-.32-.21-.08-.46-.11-.75-.1-.29.01-.62.07-.98.17-.36.11-.79.28-1.28.51l-.31-.64,6.69-3.24,17.52,14.33-.52-22.56,6.69-3.24.31.64-.82.4c-1.01.49-1.58,1.14-1.7,1.94-.08.48.2,1.39.85,2.73l7.47,15.43c.7,1.45,1.3,2.28,1.8,2.48.67.28,1.46.19,2.39-.26l.82-.4.31.64-10.03,4.86-.31-.64.84-.4c1-.48,1.56-1.13,1.69-1.93.08-.48-.2-1.39-.85-2.73l-7.64-15.78.52,24.28-.57.28Z"/>
      <path class="cls-2" d="M560.35,441.3c2.92-1.73,6.12-2.11,9.59-1.16,3.47.95,6.19,3.08,8.16,6.42,2.03,3.43,2.63,6.92,1.81,10.47-.82,3.55-2.77,6.23-5.85,8.05-3.12,1.85-6.39,2.29-9.81,1.33-3.42-.96-6.16-3.2-8.24-6.7-2.12-3.59-2.63-7.23-1.53-10.94.96-3.22,2.91-5.7,5.87-7.45ZM560.75,442.71c-1.14.68-2.01,1.52-2.61,2.54s-.93,2.15-1,3.42c-.07,1.26.12,2.63.56,4.11.45,1.48,1.14,3.01,2.09,4.61.94,1.59,1.96,2.95,3.05,4.09,1.09,1.14,2.22,2,3.39,2.59,1.17.59,2.35.89,3.55.89,1.2,0,2.38-.34,3.55-1.03,1.04-.62,1.89-1.39,2.55-2.32.66-.93,1.06-2.01,1.22-3.23.16-1.23.04-2.6-.36-4.12-.4-1.52-1.13-3.18-2.19-4.98-1.02-1.72-2.08-3.17-3.18-4.33-1.1-1.17-2.24-2.04-3.41-2.6-1.17-.57-2.36-.83-3.56-.78-1.21.05-2.42.43-3.64,1.16Z"/>
      <path class="cls-2" d="M595.34,418.89l.41.59c-.4.4-.7.79-.91,1.18-.21.38-.35.79-.42,1.21-.07.42-.07.88,0,1.36.06.48.16,1.02.28,1.61l5.26,23.55-.59.41-21-12.94c-1.1-.68-1.8-1.06-2.09-1.14-.49-.14-.99-.18-1.51-.1-.51.08-1.12.33-1.82.74l-.41-.59,8.79-6.13.41.59c-.47.41-.83.76-1.09,1.06-.25.3-.42.57-.51.81-.08.24-.1.46-.05.65.05.19.14.39.27.58.38.54,1.2,1.2,2.46,1.97l14.27,8.8-3.61-16c-.37-1.58-.71-2.61-1.04-3.08-.23-.33-.62-.52-1.16-.57-.55-.05-1.28.16-2.19.64l-.41-.59,6.64-4.63Z"/>
      <path class="cls-2" d="M616.27,424.41l-7.97,6.31,1.17,4.35c.28,1.06.58,1.79.9,2.2.13.16.27.29.44.38.16.09.38.13.64.11.26-.02.58-.12.96-.29.37-.17.83-.44,1.37-.8l.44.56-6.48,5.13-.44-.56c.73-.82,1.13-1.46,1.2-1.91.07-.45.05-1.03-.06-1.74-.11-.71-.3-1.57-.57-2.57l-6.17-22.66.53-.42,20.71,11.44c.85.48,1.57.83,2.16,1.06s1.11.37,1.56.39c.45.03.87-.03,1.25-.19.38-.15.79-.39,1.23-.7l.44.56-8.12,6.43-.44-.56c.39-.34.69-.65.91-.94.22-.29.36-.55.43-.78.07-.24.08-.45.03-.64-.05-.19-.14-.38-.27-.55-.17-.23-.44-.48-.82-.74-.38-.27-.87-.56-1.45-.89l-3.59-1.97ZM614.95,423.62l-10.07-5.55,3,11.15,7.07-5.6Z"/>
      <path class="cls-2" d="M642.72,403.31l.56-.33,3.13,6.78-15.03,13.67-.48-.53.73-.66c.81-.74,1.15-1.54,1.03-2.4-.07-.48-.61-1.28-1.63-2.39l-11.39-12.53c-1.11-1.22-1.93-1.86-2.47-1.91-.75-.08-1.5.21-2.23.88l-.73.66-.48-.53,8.79-7.99.48.53c-.53.48-.94.9-1.24,1.26-.31.36-.53.7-.66,1-.14.3-.21.57-.22.82-.01.25,0,.48.06.72.12.43.7,1.23,1.76,2.4l11.09,12.2c.3.33.58.61.82.83.24.22.46.38.66.48.2.11.39.16.58.18.19.01.38-.02.59-.1.32-.11,1.1-.74,2.36-1.89l1.42-1.29c1.48-1.35,2.42-2.41,2.84-3.18.21-.38.37-.79.47-1.21.1-.42.14-.9.12-1.43-.02-.53-.1-1.12-.25-1.77-.15-.65-.37-1.4-.67-2.24Z"/>
    </g>
    <g>
      <g>
        <path class="cls-1" d="M472.01,201.15c-.8,0-1.58-.42-2.01-1.15l-2.15-3.64c-.34-.57-.42-1.27-.21-1.9.2-.64.67-1.15,1.28-1.42l61.61-27.04,14.12-6.68-6.58-1.61c-1.02-.25-1.75-1.16-1.78-2.21-.02-1.05.66-1.99,1.67-2.29l78.18-23.03c.22-.06.44-.1.66-.1.97,0,1.88.61,2.21,1.58.4,1.18-.2,2.48-1.36,2.93l-49.89,19.36,5.51,1.55c.96.27,1.64,1.12,1.7,2.11s-.52,1.92-1.45,2.29l-100.62,41.07c-.29.12-.59.17-.88.17Z"/>
        <path d="M616.8,132.42l-56.41,21.89,12.24,3.44-100.62,41.07-2.15-3.64,61.61-27.04,20.12-9.52-12.97-3.18,78.18-23.03M616.8,127.75c-.44,0-.88.06-1.32.19l-78.18,23.03c-2.02.6-3.4,2.48-3.35,4.58s1.51,3.92,3.56,4.42l.2.05-8.17,3.87-61.55,27.01c-1.22.54-2.16,1.57-2.57,2.84s-.26,2.66.42,3.81l2.15,3.64c.86,1.46,2.41,2.29,4.02,2.29.59,0,1.19-.11,1.76-.35l100.62-41.07c1.85-.75,3.01-2.6,2.9-4.59-.09-1.61-1.01-3.04-2.38-3.8l43.57-16.91c2.33-.9,3.54-3.49,2.73-5.86-.66-1.93-2.47-3.16-4.42-3.16h0Z"/>
      </g>
      <g>
        <path class="cls-1" d="M357.2,401.24c-5.17,0-14.48-.22-19.35-1.68-2.73-.67-6.48-2.62-9.36-7.99-5.95-11.08-5.93-32.44-5.64-41.11.62-18.67,3.96-36.53,9.17-49.01.05-.13.1-.23.15-.33.13-.27.24-.53.35-.75.23-.5.56-1.22,1.04-1.99l-63.47,26.76c-1.52.64-3.11.96-4.74.96-2.52,0-4.95-.77-7.03-2.23-2.73-1.92-4.57-4.98-5.07-8.4l-3.27-22.64-20.97-5.91c-1.11-.31-1.93-.8-2.48-1.12l-.2-.11c-2.26-1.31-3.96-3.19-4.91-5.46-2.54-6.07-.16-12.9,5.55-15.89.15-.08.29-.15.43-.21l20.66-9.3c1.35-.61,2.77-.93,4.24-.96l-.53-6.1c-.44-5.01,2.38-9.69,7.01-11.66l168.22-71.29c1.03-.44,2.12-.66,3.23-.66,1.2,0,2.4.27,3.49.77,2.12.98,3.74,2.83,4.43,5.06l7.77,24.96,10.34-3.96-6.22-19.26c-.49-1.57-.54-3.17-.15-4.66.96-3.66,4.26-6.22,8.03-6.22h11.61c1.39,0,2.72.35,3.89.97,1.16-.62,2.48-.97,3.89-.97h28.82c3.48,0,6.61,2.2,7.8,5.47l7,19.34c1.23,3.39.14,7.15-2.71,9.37l-28.93,22.48c-1.45,1.13-3.26,1.74-5.09,1.74-1.37,0-2.71-.34-3.92-.98-.82,2.06-2.45,3.78-4.64,4.64l-11.52,4.55c.18,2.67-.94,5.27-2.99,6.96.14-.02.28-.05.42-.07,6.29-.98,10.14-1.39,13.31-1.39,3.68,0,6.47.59,8.74,1.84,3.05,1.35,5.06,4.18,5.31,7.56.62,8.5-12.1,17.89-19.23,20.17-1.93.62-3.81.93-5.59.93-.08,0-.15,0-.22,0-.1.84-.27,1.66-.54,2.48-2.02,6.33-7.67,8.15-13.64,10.08-2.45.79-5.59,1.8-9.42,3.3,0,2.35-.05,5.31-.32,8.89v.09c-.06.54-.1,1.05-.14,1.56-.53,6.43-1.42,17.1-12.51,21.33l-34.78,13.76c-.82.32-1.67.51-2.54.57-.11,11.3,1.47,23.18,3.01,34.68.16,1.18.31,2.35.47,3.52.45.21,1.13.48,2.15.8.94.29,1.8.74,2.57,1.34,12.15,9.37,10.31,17.59,8.13,21.66-4.03,7.52-15.31,11.73-35.48,13.25-4.31.33-9,.5-13.57.5h0ZM383.09,376.8c-.78,2.3-2.02,4.44-3.69,6.28,5.09-.83,8.39-1.83,10.35-2.64-.21-.19-.45-.4-.71-.63-2.43-.87-4.38-1.89-5.95-3.01ZM349.52,371.9c.52.22,2.01.67,5.74.67,1.44,0,2.91-.06,4.34-.12,1.45-.06,2.94-.12,4.34-.12.85,0,1.61.02,2.32.07.3-.03.57-.16.79-.39.26-.26.39-.58.39-.95l-.2-67.94h-15.23c-.8,0-1.57-.11-2.31-.32l.12.45.04.2c1.16,6.01,1.42,19.04.81,39.84-.23,7.77-.54,15.13-.77,19.93-.12,2.63-.23,4.78-.31,6.28-.04.78-.07,1.39-.11,1.92,0,.21.03.37.04.48ZM265.4,284.12c.09.32.16.66.21.99l3.26,22.54,62.16-26.21-3.9-8.14c-.99-2.07-1.08-4.48-.24-6.61.84-2.13,2.54-3.84,4.67-4.68l63.74-25.19-2.51-6.31-127.37,53.61ZM343,294.39c.21.05.42.12.64.19,0-.16.01-.32.03-.47l-.67.28ZM410.24,289.64c.08.61.1,1.23.04,1.86l-.21,2.33c3.74-1.48,5.69-2.39,6.7-2.94.26-1.14.46-2.39.58-3.55l-7.12,2.3ZM247.93,275.02c-.13-.61-.24-1.22-.33-1.82l-2.36,1.06,2.68.76ZM269.1,255.79l114.09-47.34c.23-.1.47-.18.7-.26l-2.42-6.09-112.88,47.84.51,5.85ZM410.71,230.72l6.96-2.75-16.19-25.85-1.85.77,11.08,27.83ZM433.34,221.78l3.11-1.23-8.59-14.62,5.48,15.84ZM459.06,211.61l3.3-1.31-1.1-3.5-3.39,1.3,1.18,3.51ZM488.23,197.31l2.12-1.64-2.37.91.26.74ZM482.5,180.91l9.13-3.5h-10.37l1.24,3.5Z"/>
        <path d="M506.12,166.92c.93,0,1.76.58,2.08,1.46l7,19.34c.33.9.03,1.91-.72,2.5l-28.92,22.48c-.39.31-.87.46-1.36.46s-.98-.16-1.4-.49c-.34-.27-.57-.65-.71-1.06l-5.91-17.02-6.91,2.65,5.43,17.29c.35,1.11-.22,2.29-1.3,2.72l-16.64,6.58,1.18,3.5c.37,1.11-.18,2.32-1.27,2.76l-38.31,15.38,2.36,4.77,29.84-12.58c.28-.12.57-.17.86-.17.74,0,1.46.38,1.88,1.04l2.58,4.15c1.79-1.01,4.02-1.92,6.62-2.32,5.15-.81,9.23-1.31,12.37-1.31,2.67,0,4.67.37,6.06,1.23,1.1.39,1.84,1.34,1.93,2.53.3,4.14-8.83,11.96-15.02,13.93-1.41.45-2.65.64-3.74.64-3.67,0-5.63-2.14-6.55-3.67l-2.28-3.66c2.2,7.64,3.18,11.22,2.28,14.04-1.07,3.35-4.33,4.4-9.72,6.14-3.32,1.07-7.81,2.52-13.6,4.99-.04.7-.04,1.82-.04,2.84,0,2.38,0,5.64-.31,9.68-.05.57-.1,1.12-.14,1.66-.52,6.21-1.1,13.26-8.65,16.12l-34.82,13.78c-.26.1-.54.16-.81.16-.75,0-1.49-.38-1.92-1.11-.2-.34-.29-.74-.29-1.13,0-1.75-.05-3.39-.09-4.97-.29-10.61-.5-18.28,14.14-23.54.24-.09.5-.13.75-.13.48,0,.96.16,1.35.46.6.46.92,1.2.85,1.95l-.94,10.53c.07.46.36.72.54.84.14.09.38.22.7.22.08,0,.17,0,.27-.03,1.04-.54,2.8-1.21,4.98-2.05,3.12-1.19,11.37-4.35,12.33-6.01,1.18-3.58,2.4-11.74.47-14.28-.24-.32-.53-.54-1.11-.55l-22.74,7.34s-.09.03-.13.04c-4.53,1.17-8.6,4.81-12.12,10.84-.02.03-.03.05-.05.08-1.64,2.57-1.88,11.29-2.04,17.05-.1,3.5-.18,6.53-.48,8.51-.33,12.34,1.37,25.13,3.02,37.51.21,1.61.43,3.21.64,4.8,0,.05.01.1.01.15.11,1.66,2.12,3.09,6.16,4.36.24.08.48.19.68.35,6.56,5.06,8.75,9.76,6.49,13.97-2.88,5.36-13.17,8.75-30.58,10.06-4.31.33-8.85.48-13.11.48-7.86,0-14.8-.53-17.76-1.47-2.19-.48-4.08-2.16-5.6-5-7.45-13.88-6.94-59.24,3.78-84.9.01-.03.02-.06.04-.08.15-.32.28-.6.39-.85.63-1.37,1.23-2.67,2.75-2.67.08,0,.15,0,.24,0,1.67.14,2.08,1.68,2.33,2.59.11.41.25.93.45,1.56.02.08.04.17.07.25,1.06,5.49,1.29,18.45.7,38.51-.23,7.75-.54,15.06-.76,19.83-.12,2.61-.23,4.76-.31,6.25-.05.98-.09,1.67-.13,2.18h.01c.03,2.18.61,3.78,1.78,4.88,2.09,1.98,6.07,2.4,10.09,2.4,1.56,0,3.12-.06,4.58-.12,1.43-.06,2.81-.11,4.1-.11.78,0,1.53.02,2.23.07,1.96-.02,3.79-.79,5.18-2.18,1.4-1.41,2.17-3.28,2.17-5.26l-.22-74h-21.29c-.91,0-1.77-.51-2.12-1.35-.49-1.18.1-2.47,1.22-2.92l89.34-35.3-1.65-3.3-15.65,6.37c-.27.11-.55.16-.83.16-.82,0-1.6-.46-1.98-1.23l-1.75-3.55-150.87,63.61c-.77.32-1.58.49-2.38.49-1.24,0-2.46-.38-3.53-1.13-1.42-.99-2.3-2.58-2.55-4.29l-3.84-26.55-24.78-6.98c-.42-.12-.8-.36-1.29-.65-1.02-.59-1.88-1.45-2.34-2.54-1.38-3.29-.09-6.66,2.77-8.15.04-.02.08-.04.12-.06l20.64-9.3c.63-.29,1.31-.43,1.98-.43.92,0,1.84.27,2.65.8,1.3.86,2.09,2.26,2.15,3.8.21,1,.28,2.22.37,3.63.13,2.11.36,6.04,1.44,6.75.1.07.24.09.39.09.31,0,.67-.1.89-.17l126.38-53.19-1.43-2.72-118.23,49.06c-.72.3-1.47.45-2.21.45-1.04,0-2.08-.29-3.01-.86-1.59-.98-2.56-2.72-2.72-4.59l-1.38-15.75c-.21-2.38,1.13-4.6,3.32-5.53l168.22-71.29c.28-.12.57-.18.86-.18.32,0,.64.07.93.2.57.26,1,.75,1.18,1.35l14,44.95c.33,1.07-.19,2.22-1.22,2.68-.29.13-.59.19-.89.19-.76,0-1.5-.4-1.91-1.09l-18.14-30.87-7.8,3.65,11.51,33.31c.37,1.06-.12,2.23-1.14,2.72-.31.15-.63.22-.95.22-.74,0-1.46-.37-1.87-1.04l-20.01-31.95-12.15,5.02,15.55,39.04,43.92-17.36-5.84-17.33c-.38-1.12.2-2.35,1.3-2.77l17.11-6.56-7.98-24.74c-.13-.41-.16-.84-.06-1.25.27-1.02,1.17-1.68,2.15-1.68h11.61c.94,0,1.78.6,2.09,1.49l7.25,20.42,20.41-7.82,1.58,4.13-20.54,7.87,4.97,14.31,25.22-19.6-5.93-16.37h-27.27c-1.22,0-2.21-.99-2.21-2.21s.99-2.21,2.21-2.21h28.82M467.94,193l6.79-2.6-6.78-19.07h-7.02l7.02,21.67M264.92,264c.15,0,.33-.03.51-.1l120.09-49.83c.28-.11.56-.17.85-.17.8,0,1.56.43,1.95,1.18l3.5,6.63c.29.55.34,1.19.13,1.78-.21.58-.65,1.05-1.22,1.29l-128.68,54.16s-.09.04-.14.05c-.9.31-1.7.43-2.39.43-1.27,0-2.21-.4-2.85-.83-2.9-1.94-3.17-6.5-3.39-10.16-.08-1.26-.15-2.45-.31-3.1-.05-.19-.07-.38-.06-.57,0-.14-.06-.25-.17-.33-.07-.04-.14-.07-.21-.07-.05,0-.11.01-.16.04l-20.57,9.27c-.9.5-.92,1.39-.9,1.65.02.26.14,1.13,1.07,1.52l26.05,7.34c.84.24,1.46.95,1.59,1.81l4.07,28.15c.08.53.38.98.85,1.24.26.15.55.22.84.22.22,0,.45-.04.66-.13l150.62-63.5-3.3-6.68c-.27-.55-.3-1.19-.08-1.77.22-.58.67-1.03,1.24-1.26l38.59-15.5-.44-1.3-43.7,17.27,1.4,3.52c.44,1.1-.07,2.34-1.14,2.83l-69.45,31.5c-.3.13-.61.2-.91.2-.82,0-1.62-.46-2-1.26l-4.24-8.84c-.27-.55-.29-1.19-.06-1.76s.68-1.02,1.25-1.25l69.41-27.43-16.35-41.06c-.45-1.12.09-2.4,1.21-2.86l15.89-6.57c.27-.11.56-.17.84-.17.74,0,1.46.38,1.87,1.04l10.7,17.09-5.82-16.85c-.37-1.07.13-2.25,1.15-2.72l11.42-5.34c.3-.14.62-.21.94-.21.76,0,1.5.39,1.91,1.09l9.43,16.05-7.57-24.29-165.98,70.34c-.43.18-.68.61-.64,1.07l1.4,15.95c.05.58.42.88.63,1.01.14.09.38.19.68.19M455.34,219.62l14.52-5.74-4.73-15.07-14.87,5.7,5.09,15.11M423.39,255.67l15.65-6.36c.27-.11.55-.16.83-.16.82,0,1.59.45,1.98,1.22l3.65,7.29c.28.55.31,1.2.09,1.78-.22.58-.68,1.04-1.25,1.27l-80.79,31.92h11.97c1.22,0,2.21.99,2.21,2.2l.22,76.2c0,3.17-1.22,6.15-3.46,8.4-2.24,2.25-5.22,3.48-8.39,3.48-.06,0-.12,0-.18,0-.6-.05-1.26-.07-1.97-.07-1.2,0-2.54.05-3.92.11-1.6.06-3.25.13-4.9.13-4.93,0-9.8-.59-12.99-3.62-2.05-1.94-3.11-4.64-3.16-8.03,0-.05,0-.1,0-.16.03-.48,2.46-44.14,1.1-61.47-8.48,24.67-8.89,64.6-2.34,76.8.87,1.63,1.83,2.61,2.69,2.78.1.02.2.05.3.08,2.05.7,8.44,1.29,16.55,1.29,3.93,0,8.26-.14,12.7-.47,17.57-1.33,25.48-4.87,27.02-7.74,1.31-2.43-1.91-5.72-4.97-8.13-2.65-.85-8.48-2.93-8.86-8.1-.21-1.57-.42-3.15-.63-4.73-1.68-12.59-3.41-25.62-3.06-38.36,0-.1.01-.2.03-.29.27-1.68.36-4.78.45-8.07.2-7.33.43-15.64,2.7-19.27,4.11-7.04,9.08-11.36,14.75-12.84l22.99-7.42c.18-.06.36-.09.55-.1.14,0,.29-.01.43-.01,1.92,0,3.55.79,4.7,2.29,3.69,4.83,1.08,15.79.18,18.46,0,.02-.02.05-.03.07-1.18,3.12-6.91,5.52-14.89,8.57-2.02.77-3.92,1.5-4.63,1.9-.12.07-.25.12-.38.17-.6.2-1.21.3-1.82.3-1.11,0-2.21-.33-3.17-.98-1.48-1-2.39-2.6-2.49-4.38,0-.11,0-.21,0-.32l.64-7.12c-8.33,3.9-8.2,8.65-7.95,17.93.02.62.03,1.25.05,1.89l31.87-12.61c4.73-1.8,5.3-5.87,5.84-12.36.05-.55.09-1.11.14-1.66.3-3.84.29-7,.29-9.3,0-3.92,0-5.71,1.79-6.51,6.44-2.8,11.33-4.38,14.91-5.54,4.38-1.41,6.5-2.14,6.86-3.28.52-1.63-.62-5.59-2.51-12.16l-.52-1.81c-.2-.71-.04-1.48.44-2.04.06-.07.59-.68,1.53-1.51l-1.72-2.77-27.85,11.74.73,1.47M464.09,252.94c.29,0,.62-.03.97-.08,5.07-.81,11.24-6.53,12.94-9.1-.7-.22-1.74-.31-2.96-.31-3.79,0-9.32.87-11.89,1.27-1.92.3-3.59.97-4.96,1.72l3.08,4.95c.46.76,1.18,1.56,2.81,1.56M339.89,275.65l65.56-29.74-.63-1.57-67.21,26.56,2.28,4.75M506.12,154.76h-48.21c-6.54,0-12.26,4.43-13.91,10.76-.16.6-.27,1.21-.35,1.82-1.33-3.49-3.98-6.36-7.39-7.94-1.88-.87-3.97-1.33-6.04-1.33-1.94,0-3.82.38-5.61,1.14l-168.22,71.29c-7.07,3-11.36,10.14-10.69,17.79l.08.89c-.07.03-.15.07-.22.1l-20.64,9.3c-.27.12-.5.24-.74.36h-.01s-.01.02-.01.02c-8.53,4.47-12.12,14.62-8.34,23.63,1.47,3.5,4.05,6.4,7.48,8.37l.15.09c.72.42,2.05,1.2,3.9,1.73l17.18,4.84,2.71,18.73c.73,5.08,3.5,9.64,7.59,12.51,3.11,2.18,6.75,3.34,10.52,3.34,2.45,0,4.84-.48,7.11-1.44l50.35-21.23c-3.4,11.77-5.54,26.05-6.03,40.76-.3,9.16-.29,31.8,6.36,44.19,3.89,7.25,9.19,9.99,13.14,10.99,5.37,1.56,14.29,1.89,20.93,1.89,4.72,0,9.57-.18,14.03-.51,22.75-1.72,35.21-6.79,40.38-16.44,2.95-5.49,3.08-11.72.38-17.54-1.94-4.18-5.26-8.04-10.16-11.81-.89-.68-1.85-1.26-2.87-1.72-1.3-9.73-2.63-19.72-2.9-29.24l33.41-13.22c6.5-2.49,11.29-7.21,13.85-13.63,1.83-4.58,2.21-9.14,2.51-12.81v-.06c.05-.49.09-.98.13-1.5v-.09s.01-.09.01-.09c.14-1.85.23-3.57.28-5.11,1.97-.7,3.71-1.26,5.27-1.76,6.2-2,13.83-4.46,17.11-12.73.95-.19,1.91-.44,2.87-.75,6.6-2.11,12.25-6.79,14.38-8.7,6.45-5.81,9.5-11.76,9.07-17.7-.4-5.47-3.74-10.26-8.64-12.55-2.02-1.08-4.09-1.7-6.03-2.05.93-.59,1.78-1.29,2.53-2.06.45.04.91.07,1.36.07,3.18,0,6.31-1.07,8.82-3.02l28.93-22.48c4.94-3.84,6.82-10.36,4.69-16.24l-7-19.34c-2.05-5.67-7.48-9.48-13.51-9.48h0ZM272.15,287.87l48.24-20.3c-.42,2.82,0,5.75,1.25,8.36l1.15,2.39-49.03,20.67-1.61-11.12h0ZM356.65,309.2h4.53l.17,57.1c-.66.02-1.32.05-1.98.07-1.19.05-2.4.1-3.55.11.04-.91.09-1.9.14-2.98.23-4.82.54-12.22.77-20.03.54-18.16.33-28.27-.09-34.27h0Z"/>
      </g>
    </g>
  </g>
</svg>