<?xml version="1.0" encoding="UTF-8"?>
<svg id="Layer_2" data-name="Layer 2" xmlns="http://www.w3.org/2000/svg" viewBox="0 0 407.16 279.57">
  <defs>
    <style>
      .cls-1 {
        fill: #feff16;
      }
    </style>
  </defs>
  <g id="Layer_1-2" data-name="Layer 1">
    <g>
      <g>
        <path class="cls-1" d="M257.7,73.4c-.8,0-1.58-.42-2.01-1.15l-2.15-3.64c-.34-.57-.42-1.27-.21-1.9.2-.64.67-1.15,1.28-1.42l61.61-27.04,14.12-6.68-6.58-1.61c-1.02-.25-1.75-1.16-1.78-2.21-.02-1.05.66-1.99,1.67-2.29L401.84,2.43c.22-.06.44-.1.66-.1.97,0,1.88.61,2.21,1.58.4,1.18-.2,2.48-1.36,2.93l-49.89,19.36,5.51,1.55c.96.27,1.64,1.12,1.7,2.11s-.52,1.92-1.45,2.29l-100.62,41.07c-.29.12-.59.17-.88.17Z"/>
        <path d="M402.5,4.67l-56.41,21.89,12.24,3.44-100.62,41.07-2.15-3.64,61.61-27.04,20.12-9.52-12.97-3.18,78.18-23.03M402.5,0c-.44,0-.88.06-1.32.19l-78.18,23.03c-2.02.6-3.4,2.48-3.35,4.58s1.51,3.92,3.56,4.42l.2.05-8.17,3.87-61.55,27.01c-1.22.54-2.16,1.57-2.57,2.84s-.26,2.66.42,3.81l2.15,3.64c.86,1.46,2.41,2.29,4.02,2.29.59,0,1.19-.11,1.76-.35l100.62-41.07c1.85-.75,3.01-2.6,2.9-4.59-.09-1.61-1.01-3.04-2.38-3.8l43.57-16.91c2.33-.9,3.54-3.49,2.73-5.86-.66-1.93-2.47-3.16-4.42-3.16h0Z"/>
      </g>
      <g>
        <path class="cls-1" d="M142.9,273.49c-5.17,0-14.48-.22-19.35-1.68-2.73-.67-6.48-2.62-9.36-7.99-5.95-11.08-5.93-32.44-5.64-41.11.62-18.67,3.96-36.53,9.17-49.01.05-.13.1-.23.15-.33.13-.27.24-.53.35-.75.23-.5.56-1.22,1.04-1.99l-63.47,26.76c-1.52.64-3.11.96-4.74.96-2.52,0-4.95-.77-7.03-2.23-2.73-1.92-4.57-4.98-5.07-8.4l-3.27-22.64-20.97-5.91c-1.11-.31-1.93-.8-2.48-1.12l-.2-.11c-2.26-1.31-3.96-3.19-4.91-5.46-2.54-6.07-.16-12.9,5.55-15.89.15-.08.29-.15.43-.21l20.66-9.3c1.35-.61,2.77-.93,4.24-.96l-.53-6.1c-.44-5.01,2.38-9.69,7.01-11.66L212.67,37.06c1.03-.44,2.12-.66,3.23-.66,1.2,0,2.4.27,3.49.77,2.12.98,3.74,2.83,4.43,5.06l7.77,24.96,10.34-3.96-6.22-19.26c-.49-1.57-.54-3.17-.15-4.66.96-3.66,4.26-6.22,8.03-6.22h11.61c1.39,0,2.72.35,3.89.97,1.16-.62,2.48-.97,3.89-.97h28.82c3.48,0,6.61,2.2,7.8,5.47l7,19.34c1.23,3.39.14,7.15-2.71,9.37l-28.93,22.48c-1.45,1.13-3.26,1.74-5.09,1.74-1.37,0-2.71-.34-3.92-.98-.82,2.06-2.45,3.78-4.64,4.64l-11.52,4.55c.18,2.67-.94,5.27-2.99,6.96.14-.02.28-.05.42-.07,6.29-.98,10.14-1.39,13.31-1.39,3.68,0,6.47.59,8.74,1.84,3.05,1.35,5.06,4.18,5.31,7.56.62,8.5-12.1,17.89-19.23,20.17-1.93.62-3.81.93-5.59.93-.08,0-.15,0-.22,0-.1.84-.27,1.66-.54,2.48-2.02,6.33-7.67,8.15-13.64,10.08-2.45.79-5.59,1.8-9.42,3.3,0,2.35-.05,5.31-.32,8.89v.09c-.06.54-.1,1.05-.14,1.56-.53,6.43-1.42,17.1-12.51,21.33l-34.78,13.76c-.82.32-1.67.51-2.54.57-.11,11.3,1.47,23.18,3.01,34.68.16,1.18.31,2.35.47,3.52.45.21,1.13.48,2.15.8.94.29,1.8.74,2.57,1.34,12.15,9.37,10.31,17.59,8.13,21.66-4.03,7.52-15.31,11.73-35.48,13.25-4.31.33-9,.5-13.57.5h0ZM168.79,249.05c-.78,2.3-2.02,4.44-3.69,6.28,5.09-.83,8.39-1.83,10.35-2.64-.21-.19-.45-.4-.71-.63-2.43-.87-4.38-1.89-5.95-3.01ZM135.21,244.15c.52.22,2.01.67,5.74.67,1.44,0,2.91-.06,4.34-.12,1.45-.06,2.94-.12,4.34-.12.85,0,1.61.02,2.32.07.3-.03.57-.16.79-.39.26-.26.39-.58.39-.95l-.2-67.94h-15.23c-.8,0-1.57-.11-2.31-.32l.12.45.04.2c1.16,6.01,1.42,19.04.81,39.84-.23,7.77-.54,15.13-.77,19.93-.12,2.63-.23,4.78-.31,6.28-.04.78-.07,1.39-.11,1.92,0,.21.03.37.04.48ZM51.1,156.37c.09.32.16.66.21.99l3.26,22.54,62.16-26.21-3.9-8.14c-.99-2.07-1.08-4.48-.24-6.61.84-2.13,2.54-3.84,4.67-4.68l63.74-25.19-2.51-6.31-127.37,53.61ZM128.69,166.64c.21.05.42.12.64.19,0-.16.01-.32.03-.47l-.67.28ZM195.93,161.89c.08.61.1,1.23.04,1.86l-.21,2.33c3.74-1.48,5.69-2.39,6.7-2.94.26-1.14.46-2.39.58-3.55l-7.12,2.3ZM33.63,147.27c-.13-.61-.24-1.22-.33-1.82l-2.36,1.06,2.68.76ZM54.79,128.04l114.09-47.34c.23-.1.47-.18.7-.26l-2.42-6.09-112.88,47.84.51,5.85ZM196.4,102.97l6.96-2.75-16.19-25.85-1.85.77,11.08,27.83ZM219.03,94.03l3.11-1.23-8.59-14.62,5.48,15.84ZM244.76,83.86l3.3-1.31-1.1-3.5-3.39,1.3,1.18,3.51ZM273.93,69.56l2.12-1.64-2.37.91.26.74ZM268.19,53.16l9.13-3.5h-10.37l1.24,3.5Z"/>
        <path d="M291.81,39.17c.93,0,1.76.58,2.08,1.46l7,19.34c.33.9.03,1.91-.72,2.5l-28.92,22.48c-.39.31-.87.46-1.36.46s-.98-.16-1.4-.49c-.34-.27-.57-.65-.71-1.06l-5.91-17.02-6.91,2.65,5.43,17.29c.35,1.11-.22,2.29-1.3,2.72l-16.64,6.58,1.18,3.5c.37,1.11-.18,2.32-1.27,2.76l-38.31,15.38,2.36,4.77,29.84-12.58c.28-.12.57-.17.86-.17.74,0,1.46.38,1.88,1.04l2.58,4.15c1.79-1.01,4.02-1.92,6.62-2.32,5.15-.81,9.23-1.31,12.37-1.31,2.67,0,4.67.37,6.06,1.23,1.1.39,1.84,1.34,1.93,2.53.3,4.14-8.83,11.96-15.02,13.93-1.41.45-2.65.64-3.74.64-3.67,0-5.63-2.14-6.55-3.67l-2.28-3.66c2.2,7.64,3.18,11.22,2.28,14.04-1.07,3.35-4.33,4.4-9.72,6.14-3.32,1.07-7.81,2.52-13.6,4.99-.04.7-.04,1.82-.04,2.84,0,2.38,0,5.64-.31,9.68-.05.57-.1,1.12-.14,1.66-.52,6.21-1.1,13.26-8.65,16.12l-34.82,13.78c-.26.1-.54.16-.81.16-.75,0-1.49-.38-1.92-1.11-.2-.34-.29-.74-.29-1.13,0-1.75-.05-3.39-.09-4.97-.29-10.61-.5-18.28,14.14-23.54.24-.09.5-.13.75-.13.48,0,.96.16,1.35.46.6.46.92,1.2.85,1.95l-.94,10.53c.07.46.36.72.54.84.14.09.38.22.7.22.08,0,.17,0,.27-.03,1.04-.54,2.8-1.21,4.98-2.05,3.12-1.19,11.37-4.35,12.33-6.01,1.18-3.58,2.4-11.74.47-14.28-.24-.32-.53-.54-1.11-.55l-22.74,7.34s-.09.03-.13.04c-4.53,1.17-8.6,4.81-12.12,10.84-.02.03-.03.05-.05.08-1.64,2.57-1.88,11.29-2.04,17.05-.1,3.5-.18,6.53-.48,8.51-.33,12.34,1.37,25.13,3.02,37.51.21,1.61.43,3.21.64,4.8,0,.05.01.1.01.15.11,1.66,2.12,3.09,6.16,4.36.24.08.48.19.68.35,6.56,5.06,8.75,9.76,6.49,13.97-2.88,5.36-13.17,8.75-30.58,10.06-4.31.33-8.85.48-13.11.48-7.86,0-14.8-.53-17.76-1.47-2.19-.48-4.08-2.16-5.6-5-7.45-13.88-6.94-59.24,3.78-84.9.01-.03.02-.06.04-.08.15-.32.28-.6.39-.85.63-1.37,1.23-2.67,2.75-2.67.08,0,.15,0,.24,0,1.67.14,2.08,1.68,2.33,2.59.11.41.25.93.45,1.56.02.08.04.17.07.25,1.06,5.49,1.29,18.45.7,38.51-.23,7.75-.54,15.06-.76,19.83-.12,2.61-.23,4.76-.31,6.25-.05.98-.09,1.67-.13,2.18h.01c.03,2.18.61,3.78,1.78,4.88,2.09,1.98,6.07,2.4,10.09,2.4,1.56,0,3.12-.06,4.58-.12,1.43-.06,2.81-.11,4.1-.11.78,0,1.53.02,2.23.07,1.96-.02,3.79-.79,5.18-2.18,1.4-1.41,2.17-3.28,2.17-5.26l-.22-74h-21.29c-.91,0-1.77-.51-2.12-1.35-.49-1.18.1-2.47,1.22-2.92l89.34-35.3-1.65-3.3-15.65,6.37c-.27.11-.55.16-.83.16-.82,0-1.6-.46-1.98-1.23l-1.75-3.55-150.87,63.61c-.77.32-1.58.49-2.38.49-1.24,0-2.46-.38-3.53-1.13-1.42-.99-2.3-2.58-2.55-4.29l-3.84-26.55-24.78-6.98c-.42-.12-.8-.36-1.29-.65-1.02-.59-1.88-1.45-2.34-2.54-1.38-3.29-.09-6.66,2.77-8.15.04-.02.08-.04.12-.06l20.64-9.3c.63-.29,1.31-.43,1.98-.43.92,0,1.84.27,2.65.8,1.3.86,2.09,2.26,2.15,3.8.21,1,.28,2.22.37,3.63.13,2.11.36,6.04,1.44,6.75.1.07.24.09.39.09.31,0,.67-.1.89-.17l126.38-53.19-1.43-2.72-118.23,49.06c-.72.3-1.47.45-2.21.45-1.04,0-2.08-.29-3.01-.86-1.59-.98-2.56-2.72-2.72-4.59l-1.38-15.75c-.21-2.38,1.13-4.6,3.32-5.53L215.04,42.66c.28-.12.57-.18.86-.18.32,0,.64.07.93.2.57.26,1,.75,1.18,1.35l14,44.95c.33,1.07-.19,2.22-1.22,2.68-.29.13-.59.19-.89.19-.76,0-1.5-.4-1.91-1.09l-18.14-30.87-7.8,3.65,11.51,33.31c.37,1.06-.12,2.23-1.14,2.72-.31.15-.63.22-.95.22-.74,0-1.46-.37-1.87-1.04l-20.01-31.95-12.15,5.02,15.55,39.04,43.92-17.36-5.84-17.33c-.38-1.12.2-2.35,1.3-2.77l17.11-6.56-7.98-24.74c-.13-.41-.16-.84-.06-1.25.27-1.02,1.17-1.68,2.15-1.68h11.61c.94,0,1.78.6,2.09,1.49l7.25,20.42,20.41-7.82,1.58,4.13-20.54,7.87,4.97,14.31,25.22-19.6-5.93-16.37h-27.27c-1.22,0-2.21-.99-2.21-2.21s.99-2.21,2.21-2.21h28.82M253.63,65.25l6.79-2.6-6.78-19.07h-7.02l7.02,21.67M50.62,136.25c.15,0,.33-.03.51-.1l120.09-49.83c.28-.11.56-.17.85-.17.8,0,1.56.43,1.95,1.18l3.5,6.63c.29.55.34,1.19.13,1.78-.21.58-.65,1.05-1.22,1.29l-128.68,54.16s-.09.04-.14.05c-.9.31-1.7.43-2.39.43-1.27,0-2.21-.4-2.85-.83-2.9-1.94-3.17-6.5-3.39-10.16-.08-1.26-.15-2.45-.31-3.1-.05-.19-.07-.38-.06-.57,0-.14-.06-.25-.17-.33-.07-.04-.14-.07-.21-.07-.05,0-.11.01-.16.04l-20.57,9.27c-.9.5-.92,1.39-.9,1.65.02.26.14,1.13,1.07,1.52l26.05,7.34c.84.24,1.46.95,1.59,1.81l4.07,28.15c.08.53.38.98.85,1.24.26.15.55.22.84.22.22,0,.45-.04.66-.13l150.62-63.5-3.3-6.68c-.27-.55-.3-1.19-.08-1.77.22-.58.67-1.03,1.24-1.26l38.59-15.5-.44-1.3-43.7,17.27,1.4,3.52c.44,1.1-.07,2.34-1.14,2.83l-69.45,31.5c-.3.13-.61.2-.91.2-.82,0-1.62-.46-2-1.26l-4.24-8.84c-.27-.55-.29-1.19-.06-1.76s.68-1.02,1.25-1.25l69.41-27.43-16.35-41.06c-.45-1.12.09-2.4,1.21-2.86l15.89-6.57c.27-.11.56-.17.84-.17.74,0,1.46.38,1.87,1.04l10.7,17.09-5.82-16.85c-.37-1.07.13-2.25,1.15-2.72l11.42-5.34c.3-.14.62-.21.94-.21.76,0,1.5.39,1.91,1.09l9.43,16.05-7.57-24.29L48.55,118.02c-.43.18-.68.61-.64,1.07l1.4,15.95c.05.58.42.88.63,1.01.14.09.38.19.68.19M241.04,91.87l14.52-5.74-4.73-15.07-14.87,5.7,5.09,15.11M209.09,127.92l15.65-6.36c.27-.11.55-.16.83-.16.82,0,1.59.45,1.98,1.22l3.65,7.29c.28.55.31,1.2.09,1.78-.22.58-.68,1.04-1.25,1.27l-80.79,31.92h11.97c1.22,0,2.21.99,2.21,2.2l.22,76.2c0,3.17-1.22,6.15-3.46,8.4-2.24,2.25-5.22,3.48-8.39,3.48-.06,0-.12,0-.18,0-.6-.05-1.26-.07-1.97-.07-1.2,0-2.54.05-3.92.11-1.6.06-3.25.13-4.9.13-4.93,0-9.8-.59-12.99-3.62-2.05-1.94-3.11-4.64-3.16-8.03,0-.05,0-.1,0-.16.03-.48,2.46-44.14,1.1-61.47-8.48,24.67-8.89,64.6-2.34,76.8.87,1.63,1.83,2.61,2.69,2.78.1.02.2.05.3.08,2.05.7,8.44,1.29,16.55,1.29,3.93,0,8.26-.14,12.7-.47,17.57-1.33,25.48-4.87,27.02-7.74,1.31-2.43-1.91-5.72-4.97-8.13-2.65-.85-8.48-2.93-8.86-8.1-.21-1.57-.42-3.15-.63-4.73-1.68-12.59-3.41-25.62-3.06-38.36,0-.1.01-.2.03-.29.27-1.68.36-4.78.45-8.07.2-7.33.43-15.64,2.7-19.27,4.11-7.04,9.08-11.36,14.75-12.84l22.99-7.42c.18-.06.36-.09.55-.1.14,0,.29-.01.43-.01,1.92,0,3.55.79,4.7,2.29,3.69,4.83,1.08,15.79.18,18.46,0,.02-.02.05-.03.07-1.18,3.12-6.91,5.52-14.89,8.57-2.02.77-3.92,1.5-4.63,1.9-.12.07-.25.12-.38.17-.6.2-1.21.3-1.82.3-1.11,0-2.21-.33-3.17-.98-1.48-1-2.39-2.6-2.49-4.38,0-.11,0-.21,0-.32l.64-7.12c-8.33,3.9-8.2,8.65-7.95,17.93.02.62.03,1.25.05,1.89l31.87-12.61c4.73-1.8,5.3-5.87,5.84-12.36.05-.55.09-1.11.14-1.66.3-3.84.29-7,.29-9.3,0-3.92,0-5.71,1.79-6.51,6.44-2.8,11.33-4.38,14.91-5.54,4.38-1.41,6.5-2.14,6.86-3.28.52-1.63-.62-5.59-2.51-12.16l-.52-1.81c-.2-.71-.04-1.48.44-2.04.06-.07.59-.68,1.53-1.51l-1.72-2.77-27.85,11.74.73,1.47M249.79,125.19c.29,0,.62-.03.97-.08,5.07-.81,11.24-6.53,12.94-9.1-.7-.22-1.74-.31-2.96-.31-3.79,0-9.32.87-11.89,1.27-1.92.3-3.59.97-4.96,1.72l3.08,4.95c.46.76,1.18,1.56,2.81,1.56M125.59,147.9l65.56-29.74-.63-1.57-67.21,26.56,2.28,4.75M291.81,27.01h-48.21c-6.54,0-12.26,4.43-13.91,10.76-.16.6-.27,1.21-.35,1.82-1.33-3.49-3.98-6.36-7.39-7.94-1.88-.87-3.97-1.33-6.04-1.33-1.94,0-3.82.38-5.61,1.14L42.08,102.75c-7.07,3-11.36,10.14-10.69,17.79l.08.89c-.07.03-.15.07-.22.1l-20.64,9.3c-.27.12-.5.24-.74.36h-.01s-.01.02-.01.02c-8.53,4.47-12.12,14.62-8.34,23.63,1.47,3.5,4.05,6.4,7.48,8.37l.15.09c.72.42,2.05,1.2,3.9,1.73l17.18,4.84,2.71,18.73c.73,5.08,3.5,9.64,7.59,12.51,3.11,2.18,6.75,3.34,10.52,3.34,2.45,0,4.84-.48,7.11-1.44l50.35-21.23c-3.4,11.77-5.54,26.05-6.03,40.76-.3,9.16-.29,31.8,6.36,44.19,3.89,7.25,9.19,9.99,13.14,10.99,5.37,1.56,14.29,1.89,20.93,1.89,4.72,0,9.57-.18,14.03-.51,22.75-1.72,35.21-6.79,40.38-16.44,2.95-5.49,3.08-11.72.38-17.54-1.94-4.18-5.26-8.04-10.16-11.81-.89-.68-1.85-1.26-2.87-1.72-1.3-9.73-2.63-19.72-2.9-29.24l33.41-13.22c6.5-2.49,11.29-7.21,13.85-13.63,1.83-4.58,2.21-9.14,2.51-12.81v-.06c.05-.49.09-.98.13-1.5v-.09s.01-.09.01-.09c.14-1.85.23-3.57.28-5.11,1.97-.7,3.71-1.26,5.27-1.76,6.2-2,13.83-4.46,17.11-12.73.95-.19,1.91-.44,2.87-.75,6.6-2.11,12.25-6.79,14.38-8.7,6.45-5.81,9.5-11.76,9.07-17.7-.4-5.47-3.74-10.26-8.64-12.55-2.02-1.08-4.09-1.7-6.03-2.05.93-.59,1.78-1.29,2.53-2.06.45.04.91.07,1.36.07,3.18,0,6.31-1.07,8.82-3.02l28.93-22.48c4.94-3.84,6.82-10.36,4.69-16.24l-7-19.34c-2.05-5.67-7.48-9.48-13.51-9.48h0ZM57.84,160.12l48.24-20.3c-.42,2.82,0,5.75,1.25,8.36l1.15,2.39-49.03,20.67-1.61-11.12h0ZM142.35,181.45h4.53l.17,57.1c-.66.02-1.32.05-1.98.07-1.19.05-2.4.1-3.55.11.04-.91.09-1.9.14-2.98.23-4.82.54-12.22.77-20.03.54-18.16.33-28.27-.09-34.27h0Z"/>
      </g>
    </g>
  </g>
</svg>