<?xml version="1.0" encoding="UTF-8"?>
<svg id="Layer_2" data-name="Layer 2" xmlns="http://www.w3.org/2000/svg" viewBox="0 0 2496.06 2496.06">
  <defs>
    <style>
      .cls-1 {
        fill: #feff16;
      }
    </style>
  </defs>
  <g id="Layer_1-2" data-name="Layer 1">
    <g>
      <rect x="0" y="0" width="86.07" height="86.07"/>
      <rect y="86.07" width="86.07" height="86.07"/>
      <rect y="172.14" width="86.07" height="86.07"/>
      <rect y="258.21" width="86.07" height="86.08"/>
      <rect y="344.29" width="86.07" height="86.07"/>
      <rect y="430.36" width="86.07" height="86.07"/>
      <rect y="516.43" width="86.07" height="86.07"/>
      <rect y="774.64" width="86.07" height="86.07"/>
      <rect y="1032.85" width="86.07" height="86.07"/>
      <rect y="1118.92" width="86.07" height="86.07"/>
      <rect y="1291.07" width="86.07" height="86.07"/>
      <rect x="0" y="1377.14" width="86.07" height="86.07"/>
      <rect y="1463.21" width="86.07" height="86.07"/>
      <rect y="1549.28" width="86.07" height="86.07"/>
      <rect y="1635.35" width="86.07" height="86.07"/>
      <rect y="1721.42" width="86.07" height="86.07"/>
      <rect y="1893.56" width="86.07" height="86.07"/>
      <rect y="1979.63" width="86.07" height="86.07"/>
      <rect y="2065.7" width="86.07" height="86.07"/>
      <rect y="2151.77" width="86.07" height="86.08"/>
      <rect y="2237.85" width="86.07" height="86.07"/>
      <rect y="2323.92" width="86.07" height="86.07"/>
      <rect x="0" y="2409.99" width="86.07" height="86.07"/>
      <rect x="86.07" width="86.07" height="86.07"/>
      <rect x="86.07" y="516.43" width="86.07" height="86.07"/>
      <rect x="86.07" y="774.64" width="86.07" height="86.07"/>
      <rect x="86.07" y="860.71" width="86.07" height="86.07"/>
      <rect x="86.07" y="1032.85" width="86.07" height="86.07"/>
      <rect x="86.07" y="1377.14" width="86.07" height="86.07"/>
      <rect x="86.07" y="1893.56" width="86.07" height="86.07"/>
      <rect x="86.07" y="2409.99" width="86.07" height="86.07"/>
      <rect x="172.14" width="86.07" height="86.07"/>
      <rect x="172.14" y="172.14" width="86.07" height="86.07"/>
      <rect x="172.14" y="258.21" width="86.07" height="86.08"/>
      <rect x="172.14" y="344.29" width="86.07" height="86.07"/>
      <rect x="172.14" y="516.43" width="86.07" height="86.07"/>
      <rect x="172.14" y="688.57" width="86.07" height="86.07"/>
      <rect x="172.14" y="774.64" width="86.07" height="86.07"/>
      <rect x="172.14" y="860.71" width="86.07" height="86.07"/>
      <rect x="172.14" y="946.78" width="86.07" height="86.07"/>
      <rect x="172.14" y="1032.85" width="86.07" height="86.07"/>
      <rect x="172.14" y="1291.07" width="86.07" height="86.07"/>
      <rect x="172.14" y="1463.21" width="86.07" height="86.07"/>
      <rect x="172.14" y="1721.42" width="86.07" height="86.07"/>
      <rect x="172.14" y="1893.56" width="86.07" height="86.07"/>
      <rect x="172.14" y="2065.7" width="86.07" height="86.07"/>
      <rect x="172.14" y="2151.77" width="86.07" height="86.08"/>
      <rect x="172.14" y="2237.85" width="86.07" height="86.07"/>
      <rect x="172.14" y="2409.99" width="86.07" height="86.07"/>
      <rect x="258.21" width="86.07" height="86.07"/>
      <rect x="258.21" y="172.14" width="86.07" height="86.07"/>
      <rect x="258.21" y="258.21" width="86.07" height="86.07"/>
      <rect x="258.21" y="344.29" width="86.07" height="86.07"/>
      <rect x="258.21" y="516.43" width="86.07" height="86.07"/>
      <rect x="258.21" y="688.57" width="86.07" height="86.07"/>
      <rect x="258.21" y="946.78" width="86.07" height="86.07"/>
      <rect x="258.21" y="1204.99" width="86.07" height="86.08"/>
      <rect x="258.21" y="1377.14" width="86.07" height="86.07"/>
      <rect x="258.21" y="1463.21" width="86.07" height="86.07"/>
      <rect x="258.21" y="1549.28" width="86.07" height="86.07"/>
      <rect x="258.21" y="1635.35" width="86.07" height="86.07"/>
      <rect x="258.21" y="1721.42" width="86.07" height="86.07"/>
      <rect x="258.21" y="1893.56" width="86.07" height="86.07"/>
      <rect x="258.21" y="2065.7" width="86.07" height="86.07"/>
      <rect x="258.21" y="2151.77" width="86.07" height="86.07"/>
      <rect x="258.21" y="2237.85" width="86.07" height="86.07"/>
      <rect x="258.21" y="2409.99" width="86.07" height="86.07"/>
      <rect x="344.28" width="86.08" height="86.07"/>
      <rect x="344.28" y="172.14" width="86.08" height="86.07"/>
      <rect x="344.28" y="258.21" width="86.08" height="86.08"/>
      <rect x="344.28" y="344.29" width="86.08" height="86.07"/>
      <rect x="344.28" y="516.43" width="86.08" height="86.07"/>
      <rect x="344.28" y="688.57" width="86.08" height="86.07"/>
      <rect x="344.28" y="774.64" width="86.08" height="86.07"/>
      <rect x="344.28" y="860.71" width="86.08" height="86.07"/>
      <rect x="344.28" y="946.78" width="86.08" height="86.07"/>
      <rect x="344.28" y="1204.99" width="86.08" height="86.08"/>
      <rect x="344.28" y="1291.07" width="86.08" height="86.07"/>
      <rect x="344.28" y="1377.14" width="86.08" height="86.07"/>
      <rect x="344.28" y="1549.28" width="86.08" height="86.07"/>
      <rect x="344.28" y="1893.56" width="86.08" height="86.07"/>
      <rect x="344.28" y="2065.7" width="86.08" height="86.07"/>
      <rect x="344.28" y="2151.77" width="86.08" height="86.08"/>
      <rect x="344.28" y="2237.85" width="86.08" height="86.07"/>
      <rect x="344.28" y="2409.99" width="86.08" height="86.07"/>
      <rect x="430.36" width="86.07" height="86.07"/>
      <rect x="430.36" y="516.43" width="86.07" height="86.07"/>
      <rect x="430.36" y="860.71" width="86.07" height="86.07"/>
      <rect x="430.36" y="946.78" width="86.07" height="86.07"/>
      <rect x="430.36" y="1032.85" width="86.07" height="86.07"/>
      <rect x="430.36" y="1204.99" width="86.07" height="86.08"/>
      <rect x="430.36" y="1291.07" width="86.07" height="86.07"/>
      <rect x="430.36" y="1463.21" width="86.07" height="86.07"/>
      <rect x="430.36" y="1635.35" width="86.07" height="86.07"/>
      <rect x="430.36" y="1893.56" width="86.07" height="86.07"/>
      <rect x="430.36" y="2409.99" width="86.07" height="86.07"/>
      <rect x="516.43" width="86.07" height="86.07"/>
      <rect x="516.43" y="86.07" width="86.07" height="86.07"/>
      <rect x="516.43" y="172.14" width="86.07" height="86.07"/>
      <rect x="516.43" y="258.21" width="86.07" height="86.08"/>
      <rect x="516.43" y="344.29" width="86.07" height="86.07"/>
      <rect x="516.43" y="430.36" width="86.07" height="86.07"/>
      <rect x="516.43" y="516.43" width="86.07" height="86.07"/>
      <rect x="516.43" y="688.57" width="86.07" height="86.07"/>
      <rect x="516.43" y="860.71" width="86.07" height="86.07"/>
      <rect x="516.43" y="1032.85" width="86.07" height="86.07"/>
      <rect x="516.43" y="1204.99" width="86.07" height="86.08"/>
      <rect x="516.43" y="1377.14" width="86.07" height="86.07"/>
      <rect x="516.43" y="1721.42" width="86.07" height="86.07"/>
      <rect x="516.43" y="1893.56" width="86.07" height="86.07"/>
      <rect x="516.43" y="1979.63" width="86.07" height="86.07"/>
      <rect x="516.43" y="2065.7" width="86.07" height="86.07"/>
      <rect x="516.43" y="2151.77" width="86.07" height="86.08"/>
      <rect x="516.43" y="2237.85" width="86.07" height="86.07"/>
      <rect x="516.43" y="2323.92" width="86.07" height="86.07"/>
      <rect x="516.43" y="2409.99" width="86.07" height="86.07"/>
      <rect x="688.57" width="86.07" height="86.07"/>
      <rect x="688.57" y="86.07" width="86.07" height="86.07"/>
      <rect x="688.57" y="172.14" width="86.07" height="86.07"/>
      <rect x="688.57" y="430.36" width="86.07" height="86.07"/>
      <rect x="688.57" y="516.43" width="86.07" height="86.07"/>
      <rect x="688.57" y="602.5" width="86.07" height="86.07"/>
      <rect x="688.57" y="688.57" width="86.07" height="86.07"/>
      <rect x="688.57" y="860.71" width="86.07" height="86.07"/>
      <rect x="688.57" y="946.78" width="86.07" height="86.07"/>
      <rect x="688.57" y="1118.92" width="86.07" height="86.07"/>
      <rect x="688.57" y="1204.99" width="86.07" height="86.08"/>
      <rect x="688.57" y="1463.21" width="86.07" height="86.07"/>
      <polygon points="774.64 1635.35 774.64 1721.42 602.5 1721.42 602.5 1635.35 516.43 1635.35 516.43 1549.28 688.57 1549.28 688.57 1635.35 774.64 1635.35"/>
      <rect x="688.57" y="1807.49" width="86.07" height="86.07"/>
      <rect x="688.57" y="2065.7" width="86.07" height="86.07"/>
      <rect x="688.57" y="2151.77" width="86.07" height="86.08"/>
      <rect x="688.57" y="2237.85" width="86.07" height="86.07"/>
      <rect x="774.64" y="172.14" width="86.07" height="86.07"/>
      <rect x="774.64" y="344.29" width="86.07" height="86.07"/>
      <rect x="774.64" y="430.36" width="86.07" height="86.07"/>
      <rect x="774.64" y="1979.63" width="86.07" height="86.07"/>
      <rect x="774.64" y="2065.7" width="86.07" height="86.07"/>
      <rect x="774.64" y="2151.77" width="86.07" height="86.08"/>
      <rect x="774.64" y="2237.85" width="86.07" height="86.07"/>
      <rect x="774.64" y="2323.92" width="86.07" height="86.07"/>
      <rect x="860.71" width="86.07" height="86.07"/>
      <rect x="860.71" y="258.21" width="86.07" height="86.08"/>
      <rect x="860.71" y="344.29" width="86.07" height="86.07"/>
      <rect x="860.71" y="516.43" width="86.07" height="86.07"/>
      <rect x="860.71" y="688.57" width="86.07" height="86.07"/>
      <rect x="860.71" y="2065.7" width="86.07" height="86.07"/>
      <rect x="860.71" y="2409.99" width="86.07" height="86.07"/>
      <rect x="946.78" y="0" width="86.07" height="86.07"/>
      <rect x="946.78" y="86.07" width="86.07" height="86.07"/>
      <rect x="946.78" y="688.57" width="86.07" height="86.07"/>
      <rect x="946.78" y="774.64" width="86.07" height="86.07"/>
      <polygon points="1204.99 1635.35 1204.99 1807.49 1118.92 1807.49 1118.92 1893.56 1032.85 1893.56 1032.85 1807.49 946.78 1807.49 946.78 1721.42 1032.85 1721.42 1032.85 1635.35 1204.99 1635.35"/>
      <rect x="946.78" y="2065.7" width="86.07" height="86.07"/>
      <rect x="946.78" y="2151.77" width="86.07" height="86.08"/>
      <rect x="946.78" y="2323.92" width="86.07" height="86.07"/>
      <rect x="946.78" y="2409.99" width="86.07" height="86.07"/>
      <rect x="1032.85" width="86.07" height="86.07"/>
      <rect x="1032.85" y="344.29" width="86.07" height="86.07"/>
      <rect x="1032.85" y="430.36" width="86.07" height="86.07"/>
      <rect x="1032.85" y="516.43" width="86.07" height="86.07"/>
      <rect x="1032.85" y="688.57" width="86.07" height="86.07"/>
      <rect x="1032.85" y="2151.77" width="86.07" height="86.08"/>
      <rect x="1118.92" width="86.07" height="86.07"/>
      <rect x="1118.92" y="172.14" width="86.07" height="86.07"/>
      <rect x="1118.92" y="258.21" width="86.07" height="86.07"/>
      <rect x="1118.92" y="344.29" width="86.07" height="86.07"/>
      <rect x="1118.92" y="602.5" width="86.07" height="86.07"/>
      <rect x="1118.92" y="774.64" width="86.07" height="86.07"/>
      <rect x="1118.92" y="1979.63" width="86.07" height="86.07"/>
      <rect x="1118.92" y="2065.7" width="86.07" height="86.07"/>
      <rect x="1118.92" y="2151.77" width="86.07" height="86.08"/>
      <rect x="1118.92" y="2237.85" width="86.07" height="86.07"/>
      <rect x="1204.99" y="86.07" width="86.07" height="86.07"/>
      <rect x="1204.99" y="258.21" width="86.07" height="86.08"/>
      <rect x="1204.99" y="516.43" width="86.07" height="86.07"/>
      <rect x="1204.99" y="602.5" width="86.07" height="86.07"/>
      <rect x="1204.99" y="774.64" width="86.07" height="86.07"/>
      <rect x="1204.99" y="1807.49" width="86.07" height="86.07"/>
      <rect x="1204.99" y="1893.56" width="86.07" height="86.07"/>
      <rect x="1204.99" y="2065.7" width="86.07" height="86.07"/>
      <rect x="1204.99" y="2237.85" width="86.07" height="86.07"/>
      <rect x="1204.99" y="2323.92" width="86.07" height="86.07"/>
      <rect x="1204.99" y="2409.99" width="86.07" height="86.07"/>
      <rect x="602.5" y="774.64" width="86.07" height="86.07"/>
      <rect x="602.5" y="860.71" width="86.07" height="86.07"/>
      <rect x="602.5" y="946.78" width="86.07" height="86.07"/>
      <rect x="602.5" y="1032.85" width="86.07" height="86.07"/>
      <rect x="602.5" y="1118.92" width="86.07" height="86.07"/>
      <rect x="602.5" y="1204.99" width="86.07" height="86.07"/>
      <rect x="602.5" y="1291.07" width="86.07" height="86.07"/>
      <rect x="602.5" y="1377.14" width="86.07" height="86.07"/>
      <rect x="1291.06" y="430.36" width="86.08" height="86.07"/>
      <rect x="1291.06" y="602.5" width="86.08" height="86.07"/>
      <rect x="1291.06" y="774.64" width="86.08" height="86.07"/>
      <rect x="1291.06" y="1635.35" width="86.08" height="86.07"/>
      <rect x="1291.06" y="1721.42" width="86.08" height="86.07"/>
      <rect x="1291.06" y="1807.49" width="86.08" height="86.07"/>
      <rect x="1291.06" y="2065.7" width="86.08" height="86.07"/>
      <rect x="1291.06" y="2409.99" width="86.08" height="86.07"/>
      <rect x="1377.14" y="172.14" width="86.07" height="86.07"/>
      <rect x="1377.14" y="516.43" width="86.07" height="86.07"/>
      <rect x="1377.14" y="602.5" width="86.07" height="86.07"/>
      <rect x="1377.14" y="688.57" width="86.07" height="86.07"/>
      <rect x="1377.14" y="774.64" width="86.07" height="86.07"/>
      <rect x="1377.14" y="1807.49" width="86.07" height="86.07"/>
      <rect x="1377.14" y="2151.77" width="86.07" height="86.08"/>
      <rect x="1377.14" y="2323.92" width="86.07" height="86.07"/>
      <rect x="1463.21" y="86.07" width="86.07" height="86.07"/>
      <rect x="1463.21" y="258.21" width="86.07" height="86.08"/>
      <rect x="1463.21" y="774.64" width="86.07" height="86.07"/>
      <rect x="1463.21" y="1635.35" width="86.07" height="86.07"/>
      <rect x="1463.21" y="1807.49" width="86.07" height="86.07"/>
      <rect x="1463.21" y="1893.56" width="86.07" height="86.07"/>
      <rect x="1463.21" y="2151.77" width="86.07" height="86.08"/>
      <rect x="1463.21" y="2237.85" width="86.07" height="86.07"/>
      <rect x="1463.21" y="2323.92" width="86.07" height="86.07"/>
      <rect x="1463.21" y="2409.99" width="86.07" height="86.07"/>
      <rect x="1549.28" width="86.07" height="86.07"/>
      <rect x="1549.28" y="258.21" width="86.07" height="86.08"/>
      <rect x="1549.28" y="344.29" width="86.07" height="86.07"/>
      <rect x="1549.28" y="430.36" width="86.07" height="86.07"/>
      <rect x="1549.28" y="516.43" width="86.07" height="86.07"/>
      <rect x="1549.28" y="602.5" width="86.07" height="86.07"/>
      <rect x="1549.28" y="688.57" width="86.07" height="86.07"/>
      <rect x="1549.28" y="774.64" width="86.07" height="86.07"/>
      <rect x="1549.28" y="1721.42" width="86.07" height="86.07"/>
      <rect x="1549.28" y="1807.49" width="86.07" height="86.07"/>
      <rect x="1549.28" y="1893.56" width="86.07" height="86.07"/>
      <rect x="1549.28" y="1979.63" width="86.07" height="86.07"/>
      <rect x="1549.28" y="2065.7" width="86.07" height="86.07"/>
      <rect x="1549.28" y="2151.77" width="86.07" height="86.08"/>
      <rect x="1549.28" y="2237.85" width="86.07" height="86.07"/>
      <rect x="1549.28" y="2323.92" width="86.07" height="86.07"/>
      <rect x="1549.28" y="2409.99" width="86.07" height="86.07"/>
      <rect x="1635.35" width="86.07" height="86.07"/>
      <rect x="1635.35" y="172.14" width="86.07" height="86.07"/>
      <rect x="1635.35" y="602.5" width="86.07" height="86.07"/>
      <rect x="1635.35" y="1635.35" width="86.07" height="86.07"/>
      <rect x="1635.35" y="1807.49" width="86.07" height="86.07"/>
      <rect x="1635.35" y="1893.56" width="86.07" height="86.07"/>
      <rect x="1635.35" y="1979.63" width="86.07" height="86.07"/>
      <rect x="1635.35" y="2065.7" width="86.07" height="86.07"/>
      <rect x="1721.42" width="86.07" height="86.07"/>
      <rect x="1721.42" y="86.07" width="86.07" height="86.07"/>
      <rect x="1721.42" y="258.21" width="86.07" height="86.08"/>
      <rect x="1721.42" y="430.36" width="86.07" height="86.07"/>
      <rect x="1721.42" y="516.43" width="86.07" height="86.07"/>
      <rect x="1721.42" y="602.5" width="86.07" height="86.07"/>
      <rect x="1721.42" y="860.71" width="86.07" height="86.07"/>
      <rect x="1721.42" y="1032.85" width="86.07" height="86.07"/>
      <rect x="1721.42" y="1118.92" width="86.07" height="86.07"/>
      <rect x="1721.42" y="1377.14" width="86.07" height="86.07"/>
      <rect x="1721.42" y="1463.21" width="86.07" height="86.07"/>
      <rect x="1721.42" y="1549.28" width="86.07" height="86.07"/>
      <rect x="1721.42" y="1721.42" width="86.07" height="86.07"/>
      <rect x="1721.42" y="1807.49" width="86.07" height="86.07"/>
      <rect x="1721.42" y="1893.56" width="86.07" height="86.07"/>
      <rect x="1721.42" y="1979.63" width="86.07" height="86.07"/>
      <rect x="1721.42" y="2065.7" width="86.07" height="86.07"/>
      <rect x="1721.42" y="2151.77" width="86.07" height="86.08"/>
      <rect x="1807.49" y="688.57" width="86.07" height="86.07"/>
      <rect x="1807.49" y="774.64" width="86.07" height="86.07"/>
      <rect x="1807.49" y="1032.85" width="86.07" height="86.07"/>
      <rect x="1807.49" y="1291.07" width="86.07" height="86.07"/>
      <rect x="1807.49" y="1549.28" width="86.07" height="86.07"/>
      <rect x="1807.49" y="1721.42" width="86.07" height="86.07"/>
      <rect x="1807.49" y="2065.7" width="86.07" height="86.07"/>
      <rect x="1807.49" y="2151.77" width="86.07" height="86.07"/>
      <rect x="1807.49" y="2237.85" width="86.07" height="86.07"/>
      <rect x="1979.63" width="86.07" height="86.07"/>
      <rect x="1979.63" y="516.43" width="86.07" height="86.07"/>
      <rect x="1979.63" y="688.57" width="86.07" height="86.07"/>
      <rect x="1979.63" y="946.78" width="86.07" height="86.07"/>
      <rect x="1979.63" y="1204.99" width="86.07" height="86.08"/>
      <rect x="1979.63" y="1291.07" width="86.07" height="86.07"/>
      <rect x="1979.63" y="1377.14" width="86.07" height="86.07"/>
      <rect x="1979.63" y="1463.21" width="86.07" height="86.07"/>
      <rect x="1979.63" y="1721.42" width="86.07" height="86.07"/>
      <rect x="1979.63" y="2065.7" width="86.07" height="86.07"/>
      <rect x="1979.63" y="2237.85" width="86.07" height="86.07"/>
      <rect x="1979.63" y="2323.92" width="86.07" height="86.07"/>
      <rect x="1979.63" y="2409.99" width="86.07" height="86.07"/>
      <rect x="2065.7" width="86.07" height="86.07"/>
      <rect x="2065.7" y="172.14" width="86.07" height="86.07"/>
      <rect x="2065.7" y="258.21" width="86.07" height="86.08"/>
      <rect x="2065.7" y="344.29" width="86.07" height="86.07"/>
      <rect x="2065.7" y="516.43" width="86.07" height="86.07"/>
      <rect x="2065.7" y="774.64" width="86.07" height="86.07"/>
      <rect x="2065.7" y="946.78" width="86.07" height="86.07"/>
      <rect x="2065.7" y="1032.85" width="86.07" height="86.07"/>
      <rect x="2065.7" y="1118.92" width="86.07" height="86.07"/>
      <rect x="2065.7" y="1291.07" width="86.07" height="86.07"/>
      <rect x="2065.7" y="1635.35" width="86.07" height="86.07"/>
      <rect x="2065.7" y="1721.42" width="86.07" height="86.07"/>
      <rect x="2065.7" y="1807.49" width="86.07" height="86.07"/>
      <rect x="2065.7" y="1893.56" width="86.07" height="86.07"/>
      <rect x="2065.7" y="1979.63" width="86.07" height="86.07"/>
      <rect x="2065.7" y="2065.7" width="86.07" height="86.07"/>
      <rect x="2065.7" y="2151.77" width="86.07" height="86.08"/>
      <rect x="2065.7" y="2237.85" width="86.07" height="86.07"/>
      <rect x="2065.7" y="2409.99" width="86.07" height="86.07"/>
      <rect x="2151.77" width="86.07" height="86.07"/>
      <rect x="2151.77" y="172.14" width="86.07" height="86.07"/>
      <rect x="2151.77" y="258.21" width="86.07" height="86.07"/>
      <rect x="2151.77" y="344.29" width="86.07" height="86.07"/>
      <rect x="2151.77" y="516.43" width="86.07" height="86.07"/>
      <rect x="2151.77" y="946.78" width="86.07" height="86.07"/>
      <rect x="2151.77" y="1118.92" width="86.07" height="86.07"/>
      <rect x="2151.77" y="1463.21" width="86.07" height="86.07"/>
      <rect x="2151.77" y="1635.35" width="86.07" height="86.07"/>
      <rect x="2151.77" y="1807.49" width="86.07" height="86.07"/>
      <rect x="2151.77" y="1893.56" width="86.07" height="86.07"/>
      <rect x="2151.77" y="1979.63" width="86.07" height="86.07"/>
      <rect x="2151.77" y="2151.77" width="86.07" height="86.08"/>
      <rect x="2151.77" y="2323.92" width="86.07" height="86.07"/>
      <rect x="2151.77" y="2409.99" width="86.07" height="86.07"/>
      <rect x="2237.84" width="86.07" height="86.07"/>
      <rect x="2237.84" y="172.14" width="86.07" height="86.07"/>
      <rect x="2237.84" y="258.21" width="86.07" height="86.08"/>
      <rect x="2237.84" y="344.29" width="86.07" height="86.07"/>
      <rect x="2237.84" y="516.43" width="86.07" height="86.07"/>
      <rect x="2237.84" y="688.57" width="86.07" height="86.07"/>
      <rect x="2237.84" y="860.71" width="86.07" height="86.07"/>
      <rect x="2237.84" y="946.78" width="86.07" height="86.07"/>
      <rect x="2237.84" y="1032.85" width="86.07" height="86.07"/>
      <rect x="2237.84" y="1204.99" width="86.07" height="86.08"/>
      <rect x="2237.84" y="1291.07" width="86.07" height="86.07"/>
      <rect x="2237.84" y="1549.28" width="86.07" height="86.07"/>
      <rect x="2237.84" y="1893.56" width="86.07" height="86.07"/>
      <rect x="2237.84" y="2237.85" width="86.07" height="86.07"/>
      <rect x="2323.91" width="86.08" height="86.07"/>
      <rect x="2323.91" y="516.43" width="86.08" height="86.07"/>
      <rect x="2323.91" y="688.57" width="86.08" height="86.07"/>
      <rect x="2323.91" y="774.64" width="86.08" height="86.07"/>
      <rect x="2323.91" y="1032.85" width="86.08" height="86.07"/>
      <rect x="2323.91" y="1291.07" width="86.08" height="86.07"/>
      <rect x="2323.91" y="1463.21" width="86.08" height="86.07"/>
      <rect x="2323.91" y="1635.35" width="86.08" height="86.07"/>
      <rect x="2323.91" y="1721.42" width="86.08" height="86.07"/>
      <rect x="2323.91" y="1893.56" width="86.08" height="86.07"/>
      <rect x="2323.91" y="1979.63" width="86.08" height="86.07"/>
      <rect x="2323.91" y="2237.85" width="86.08" height="86.07"/>
      <rect x="2409.99" y="0" width="86.07" height="86.07"/>
      <rect x="2409.99" y="86.07" width="86.07" height="86.07"/>
      <rect x="2409.99" y="172.14" width="86.07" height="86.07"/>
      <rect x="2409.99" y="258.21" width="86.07" height="86.08"/>
      <rect x="2409.99" y="344.29" width="86.07" height="86.07"/>
      <rect x="2409.99" y="430.36" width="86.07" height="86.07"/>
      <rect x="2409.99" y="516.43" width="86.07" height="86.07"/>
      <rect x="2409.99" y="688.57" width="86.07" height="86.07"/>
      <rect x="2409.99" y="774.64" width="86.07" height="86.07"/>
      <rect x="2409.99" y="1118.92" width="86.07" height="86.07"/>
      <rect x="2409.99" y="1204.99" width="86.07" height="86.08"/>
      <rect x="2409.99" y="1291.07" width="86.07" height="86.07"/>
      <rect x="2409.99" y="1635.35" width="86.07" height="86.07"/>
      <rect x="2409.99" y="1721.42" width="86.07" height="86.07"/>
      <rect x="2409.99" y="1807.49" width="86.07" height="86.07"/>
      <rect x="2409.99" y="1979.63" width="86.07" height="86.07"/>
      <rect x="2409.99" y="2323.92" width="86.07" height="86.07"/>
      <rect x="1893.56" width="86.07" height="86.07"/>
      <rect x="1893.56" y="86.07" width="86.07" height="86.07"/>
      <rect x="1893.56" y="172.14" width="86.07" height="86.07"/>
      <rect x="1893.56" y="258.21" width="86.07" height="86.08"/>
      <rect x="1893.56" y="344.29" width="86.07" height="86.07"/>
      <rect x="1893.56" y="430.36" width="86.07" height="86.07"/>
      <rect x="1893.56" y="516.43" width="86.07" height="86.07"/>
      <rect x="1893.56" y="688.57" width="86.07" height="86.07"/>
      <rect x="1893.56" y="774.64" width="86.07" height="86.07"/>
      <rect x="1893.56" y="946.78" width="86.07" height="86.07"/>
      <rect x="1893.56" y="1118.92" width="86.07" height="86.07"/>
      <rect x="1893.56" y="1291.07" width="86.07" height="86.07"/>
      <rect x="1893.56" y="1463.21" width="86.07" height="86.07"/>
      <rect x="1893.56" y="1635.35" width="86.07" height="86.07"/>
      <rect x="1893.56" y="1721.42" width="86.07" height="86.07"/>
      <rect x="1893.56" y="1893.56" width="86.07" height="86.07"/>
      <rect x="1893.56" y="2065.7" width="86.07" height="86.07"/>
      <rect x="1893.56" y="2151.77" width="86.07" height="86.08"/>
      <rect x="1893.56" y="2237.85" width="86.07" height="86.07"/>
    </g>
    <g>
      <path class="cls-1" d="M1210.26,1586.1c-14.27,0-39.93-.61-53.36-4.64-7.54-1.85-17.86-7.21-25.82-22.04-16.41-30.56-16.35-89.45-15.56-113.35,1.7-51.47,10.92-100.73,25.29-135.14.15-.35.28-.64.41-.92.35-.74.67-1.45.96-2.08.63-1.37,1.54-3.35,2.87-5.5l-175.01,73.79c-4.18,1.76-8.58,2.66-13.08,2.66-6.94,0-13.64-2.13-19.38-6.16-7.52-5.28-12.61-13.72-13.98-23.17l-9.02-62.43-57.83-16.29c-3.06-.87-5.33-2.2-6.84-3.09l-.54-.32c-6.24-3.6-10.92-8.81-13.54-15.05-7.02-16.73-.43-35.57,15.31-43.81.43-.22.81-.4,1.19-.58l56.96-25.65c3.71-1.67,7.64-2.56,11.68-2.65l-1.47-16.81c-1.21-13.81,6.55-26.73,19.32-32.14l463.85-196.57c2.83-1.2,5.84-1.81,8.92-1.81,3.3,0,6.62.73,9.61,2.12,5.85,2.71,10.3,7.79,12.22,13.94l21.44,68.82,28.52-10.93-17.14-53.11c-1.36-4.34-1.49-8.74-.42-12.84,2.64-10.1,11.75-17.15,22.14-17.15h32c3.83,0,7.49.96,10.73,2.68,3.2-1.71,6.85-2.68,10.72-2.68h79.47c9.6,0,18.24,6.06,21.5,15.09l19.3,53.33c3.38,9.34.39,19.72-7.47,25.83l-79.76,61.98c-4,3.1-8.98,4.81-14.03,4.81-3.77,0-7.49-.95-10.8-2.72-2.27,5.67-6.76,10.41-12.8,12.8l-31.78,12.56c.51,7.35-2.6,14.52-8.24,19.19.38-.07.76-.13,1.15-.19,17.34-2.71,27.97-3.82,36.71-3.82,10.13,0,17.85,1.61,24.1,5.06,8.4,3.71,13.95,11.54,14.63,20.85,1.71,23.43-33.36,49.32-53.03,55.61-5.32,1.7-10.51,2.56-15.43,2.56-.21,0-.41,0-.62,0-.27,2.31-.75,4.58-1.48,6.85-5.57,17.45-21.14,22.47-37.62,27.79-6.74,2.18-15.4,4.97-25.97,9.1-.01,6.47-.13,14.64-.89,24.51l-.02.24c-.14,1.49-.25,2.9-.37,4.3-1.47,17.72-3.92,47.14-34.51,58.82l-95.91,37.95c-2.25.89-4.61,1.41-7.01,1.56-.31,31.17,4.06,63.9,8.29,95.62.43,3.25.86,6.48,1.29,9.7,1.24.57,3.12,1.33,5.92,2.21,2.58.81,4.96,2.05,7.08,3.68,33.52,25.84,28.43,48.51,22.41,59.72-11.12,20.73-42.21,32.33-97.84,36.53-11.88.9-24.82,1.37-37.41,1.37h0ZM1281.64,1518.69c-2.14,6.35-5.57,12.23-10.18,17.32,14.03-2.28,23.14-5.03,28.55-7.29-.58-.54-1.24-1.11-1.97-1.73-6.7-2.4-12.08-5.22-16.4-8.29ZM1189.07,1505.18c1.42.62,5.55,1.84,15.84,1.84,3.96,0,8.03-.16,11.97-.32,4-.16,8.1-.32,11.97-.32,2.34,0,4.45.06,6.39.18.83-.09,1.56-.45,2.17-1.06.72-.72,1.08-1.61,1.08-2.63l-.54-187.32h-42c-2.2,0-4.34-.3-6.38-.87l.33,1.24.1.54c3.2,16.58,3.93,52.51,2.23,109.85-.63,21.44-1.5,41.72-2.12,54.96-.34,7.24-.64,13.18-.85,17.31-.11,2.14-.2,3.84-.3,5.29.02.58.07,1.01.12,1.32ZM957.13,1263.13c.24.89.43,1.81.57,2.74l8.98,62.15,171.39-72.26-10.76-22.45c-2.73-5.7-2.97-12.34-.67-18.23,2.31-5.88,7-10.59,12.88-12.91l175.75-69.46-6.93-17.4-351.21,147.82ZM1171.09,1291.46c.58.15,1.17.32,1.77.53.01-.44.04-.87.08-1.31l-1.85.78ZM1356.5,1278.36c.23,1.68.27,3.39.11,5.13l-.58,6.43c10.3-4.08,15.68-6.6,18.48-8.1.72-3.15,1.27-6.59,1.6-9.79l-19.62,6.33ZM908.96,1238.04c-.37-1.68-.66-3.36-.9-5.01l-6.5,2.93,7.4,2.08ZM967.32,1185.03l314.59-130.54c.64-.26,1.28-.5,1.94-.7l-6.68-16.79-311.26,131.91,1.41,16.12ZM1357.79,1115.91l19.2-7.59-44.64-71.27-5.11,2.11,30.56,76.74ZM1420.2,1091.25l8.58-3.39-23.68-40.3,15.1,43.69ZM1491.12,1063.22l9.11-3.6-3.03-9.66-9.34,3.58,3.26,9.68ZM1571.56,1023.77l5.84-4.54-6.54,2.51.71,2.03ZM1555.74,978.57l25.17-9.64h-28.59l3.42,9.64Z"/>
      <path d="M1620.86,939.97c2.57,0,4.86,1.61,5.73,4.02l19.3,53.34c.9,2.49.1,5.27-1.99,6.89l-79.75,61.97c-1.08.84-2.4,1.28-3.74,1.28s-2.7-.44-3.85-1.36c-.93-.74-1.58-1.79-1.97-2.92l-16.29-46.93-19.05,7.3,14.97,47.68c.96,3.05-.6,6.32-3.58,7.5l-45.89,18.14,3.24,9.64c1.03,3.06-.51,6.4-3.51,7.6l-105.65,42.42,6.5,13.17,82.27-34.69c.77-.32,1.57-.48,2.37-.48,2.05,0,4.03,1.04,5.18,2.88l7.12,11.45c4.95-2.78,11.08-5.29,18.24-6.41,14.21-2.23,25.46-3.62,34.12-3.62,7.38,0,12.87,1.01,16.7,3.39,3.04,1.08,5.07,3.69,5.31,6.99.83,11.41-24.35,32.97-41.42,38.42-3.89,1.24-7.32,1.77-10.32,1.77-10.12,0-15.51-5.91-18.07-10.11l-6.28-10.09c6.07,21.06,8.77,30.92,6.28,38.71-2.95,9.24-11.93,12.14-26.8,16.93-9.15,2.95-21.53,6.94-37.49,13.76-.11,1.93-.1,5.02-.1,7.83,0,6.56.01,15.55-.84,26.68-.14,1.58-.27,3.08-.39,4.57-1.42,17.13-3.04,36.55-23.85,44.45l-96.01,37.99c-.72.29-1.49.43-2.24.43-2.07,0-4.11-1.05-5.3-3.06-.55-.94-.8-2.04-.8-3.13,0-4.82-.13-9.34-.25-13.71-.8-29.26-1.38-50.41,39-64.92.67-.24,1.37-.36,2.06-.36,1.33,0,2.64.43,3.73,1.27,1.65,1.27,2.53,3.3,2.35,5.37l-2.6,29.03c.19,1.27.99,2,1.48,2.33.38.26,1.05.6,1.92.6.23,0,.48-.02.74-.08,2.86-1.49,7.71-3.34,13.73-5.64,8.6-3.29,31.36-11.99,34-16.57,3.26-9.87,6.63-32.38,1.29-39.37-.67-.88-1.47-1.48-3.05-1.52l-62.71,20.23c-.12.04-.24.07-.35.1-12.48,3.21-23.73,13.27-33.42,29.89-.04.07-.08.14-.13.21-4.53,7.1-5.18,31.12-5.62,47.02-.26,9.65-.49,18.02-1.32,23.47-.92,34.03,3.79,69.3,8.34,103.42.59,4.43,1.18,8.85,1.75,13.25.02.13.03.27.04.4.29,4.58,5.85,8.51,16.99,12.02.67.21,1.31.54,1.86.96,18.1,13.95,24.12,26.92,17.89,38.53-7.93,14.78-36.3,24.12-84.33,27.74-11.9.9-24.4,1.32-36.15,1.32-21.67,0-40.81-1.45-48.97-4.06-6.05-1.32-11.24-5.96-15.44-13.78-20.55-38.26-19.12-163.35,10.43-234.09.03-.08.07-.15.1-.23.41-.88.77-1.66,1.08-2.34,1.74-3.79,3.4-7.37,7.58-7.37.21,0,.43,0,.65.03,4.62.39,5.75,4.62,6.42,7.15.3,1.14.68,2.56,1.25,4.29.06.23.12.47.19.7,2.92,15.14,3.57,50.86,1.93,106.18-.63,21.38-1.5,41.53-2.11,54.67-.33,7.2-.63,13.11-.85,17.22-.14,2.7-.24,4.61-.37,6h.03c.09,6.02,1.69,10.43,4.91,13.47,5.77,5.46,16.74,6.62,27.83,6.62,4.29,0,8.6-.17,12.64-.33,3.94-.16,7.76-.31,11.3-.31,2.16,0,4.23.06,6.16.2,5.39-.06,10.45-2.19,14.27-6.01,3.87-3.88,5.99-9.03,5.97-14.51l-.59-204.04h-58.71c-2.5,0-4.89-1.4-5.85-3.72-1.35-3.25.26-6.82,3.38-8.05l246.35-97.33-4.56-9.11-43.16,17.55c-.75.3-1.53.45-2.29.45-2.26,0-4.41-1.26-5.47-3.4l-4.84-9.79-415.99,175.39c-2.12.89-4.35,1.34-6.57,1.34-3.41,0-6.8-1.05-9.74-3.11-3.9-2.74-6.34-7.12-7.02-11.84l-10.58-73.22-68.32-19.25c-1.17-.33-2.19-1-3.55-1.79-2.82-1.63-5.19-4.01-6.45-7.01-3.8-9.07-.25-18.36,7.63-22.48.11-.06.22-.11.32-.16l56.92-25.64c1.75-.79,3.61-1.18,5.45-1.18,2.55,0,5.08.74,7.29,2.2,3.58,2.36,5.75,6.23,5.94,10.47.58,2.75.78,6.13,1.02,10,.35,5.82,1.01,16.64,3.97,18.62.27.18.65.25,1.07.25.85,0,1.86-.28,2.46-.48l348.47-146.66-3.95-7.49-325.99,135.27c-1.98.82-4.04,1.23-6.09,1.23-2.88,0-5.73-.8-8.29-2.37-4.39-2.71-7.06-7.51-7.51-12.64l-3.81-43.43c-.58-6.55,3.11-12.68,9.16-15.24l463.85-196.57c.76-.32,1.57-.48,2.38-.48.88,0,1.75.19,2.56.56,1.56.72,2.75,2.07,3.26,3.72l38.61,123.95c.92,2.96-.52,6.13-3.35,7.39-.8.35-1.63.52-2.46.52-2.1,0-4.13-1.09-5.26-3.01l-50.02-85.13-21.5,10.06,31.73,91.84c1.01,2.93-.33,6.15-3.13,7.49-.84.4-1.74.6-2.63.6-2.04,0-4.02-1.03-5.17-2.86l-55.18-88.09-33.5,13.84,42.86,107.65,121.1-47.86-16.09-47.8c-1.04-3.1.54-6.47,3.6-7.64l47.17-18.07-22.01-68.23c-.35-1.12-.45-2.32-.16-3.46.74-2.82,3.22-4.62,5.92-4.62h32c2.6,0,4.91,1.64,5.76,4.1l19.99,56.3,56.27-21.56,4.36,11.39-56.63,21.7,13.69,39.45,69.54-54.04-16.34-45.15h-75.2c-3.37,0-6.1-2.73-6.1-6.1s2.73-6.1,6.1-6.1h79.47M1515.59,1011.91l18.71-7.17-18.7-52.57h-19.36l19.35,59.74M955.81,1207.66c.43,0,.9-.08,1.4-.29l331.12-137.4c.76-.32,1.56-.47,2.34-.47,2.2,0,4.31,1.2,5.39,3.25l9.65,18.29c.8,1.51.92,3.29.35,4.9-.58,1.61-1.8,2.9-3.38,3.57l-354.81,149.33c-.13.05-.25.1-.38.15-2.48.85-4.68,1.19-6.6,1.19-3.49,0-6.08-1.12-7.85-2.3-7.99-5.34-8.75-17.92-9.36-28.02-.21-3.47-.41-6.76-.85-8.55-.13-.52-.19-1.05-.18-1.58,0-.39-.15-.69-.48-.91-.19-.12-.38-.18-.57-.18-.15,0-.3.03-.45.1l-56.73,25.55c-2.47,1.38-2.53,3.83-2.48,4.56.04.72.39,3.11,2.95,4.2l71.83,20.23c2.32.65,4.03,2.61,4.38,5l11.21,77.62c.21,1.45,1.06,2.69,2.33,3.41.72.41,1.51.61,2.3.61.62,0,1.24-.12,1.83-.37l415.31-175.1-9.1-18.41c-.75-1.52-.83-3.29-.23-4.88.61-1.59,1.85-2.85,3.42-3.48l106.41-42.73-1.21-3.59-120.49,47.62,3.87,9.72c1.21,3.02-.18,6.46-3.14,7.81l-191.51,86.87c-.82.37-1.67.55-2.51.55-2.27,0-4.46-1.28-5.5-3.46l-11.68-24.38c-.73-1.53-.79-3.29-.18-4.86.62-1.57,1.86-2.82,3.43-3.44l191.38-75.63-45.08-113.21c-1.24-3.1.25-6.61,3.33-7.89l43.82-18.11c.76-.31,1.55-.46,2.33-.46,2.05,0,4.03,1.04,5.17,2.86l29.51,47.11-16.05-46.45c-1.02-2.95.35-6.19,3.18-7.51l31.5-14.73c.83-.39,1.71-.58,2.58-.58,2.1,0,4.13,1.09,5.26,3.01l26.01,44.27-20.86-66.98-457.65,193.95c-1.17.5-1.89,1.68-1.77,2.95l3.85,43.98c.14,1.6,1.15,2.44,1.74,2.8.39.24,1.05.54,1.88.54M1480.86,1085.3l40.03-15.82-13.05-41.55-41.01,15.71,14.02,41.66M1392.76,1184.7l43.14-17.54c.75-.3,1.53-.45,2.29-.45,2.25,0,4.39,1.25,5.45,3.37l10.05,20.11c.76,1.53.85,3.31.24,4.9-.61,1.6-1.86,2.86-3.45,3.49l-222.76,88.01h33c3.36,0,6.09,2.72,6.1,6.08l.61,210.12c.03,8.74-3.36,16.97-9.53,23.16-6.17,6.19-14.39,9.6-23.13,9.6-.17,0-.33,0-.49-.02-1.65-.13-3.48-.19-5.44-.19-3.31,0-6.99.15-10.81.3-4.41.18-8.97.36-13.51.36-13.6,0-27.02-1.64-35.82-9.97-5.64-5.35-8.58-12.8-8.71-22.14,0-.14,0-.29,0-.43.08-1.33,6.77-121.72,3.03-169.49-23.4,68.01-24.52,178.12-6.45,211.76,2.41,4.49,5.05,7.21,7.42,7.67.28.05.55.13.82.22,5.65,1.92,23.27,3.56,45.65,3.56,10.83,0,22.78-.38,35.02-1.31,48.45-3.65,70.25-13.42,74.5-21.35,3.6-6.71-5.26-15.77-13.71-22.43-7.31-2.34-23.37-8.07-24.44-22.33-.57-4.33-1.15-8.68-1.73-13.04-4.63-34.72-9.42-70.63-8.43-105.77,0-.27.03-.54.08-.81.75-4.62.99-13.18,1.24-22.25.55-20.22,1.17-43.13,7.46-53.13,11.34-19.4,25.02-31.31,40.67-35.41l63.39-20.45c.49-.16,1-.25,1.52-.28.4-.02.79-.03,1.17-.03,5.29,0,9.78,2.17,12.95,6.32,10.17,13.32,2.98,43.53.49,50.89-.02.07-.05.13-.07.2-3.24,8.61-19.06,15.22-41.05,23.63-5.56,2.13-10.82,4.14-12.77,5.24-.33.19-.68.34-1.04.46-1.65.56-3.35.83-5.03.83-3.07,0-6.1-.91-8.73-2.7-4.08-2.76-6.58-7.16-6.85-12.08-.02-.3-.01-.59.01-.89l1.76-19.62c-22.97,10.74-22.61,23.86-21.91,49.43.05,1.71.1,3.45.14,5.22l87.87-34.77c13.05-4.95,14.62-16.18,16.11-34.09.13-1.52.25-3.05.39-4.58.82-10.58.81-19.29.8-25.65-.01-10.81-.02-15.75,4.93-17.95,17.75-7.73,31.25-12.08,41.11-15.26,12.08-3.89,17.93-5.91,18.93-9.04,1.43-4.49-1.71-15.42-6.93-33.52l-1.44-4.99c-.56-1.96-.11-4.07,1.21-5.62.17-.2,1.62-1.88,4.22-4.15l-4.75-7.63-76.8,32.38,2,4.05M1505,1177.18c.81,0,1.7-.07,2.68-.23,13.99-2.22,30.99-18,35.67-25.1-1.94-.61-4.8-.86-8.15-.86-10.45,0-25.69,2.39-32.77,3.49-5.29.83-9.9,2.67-13.67,4.74l8.5,13.66c1.27,2.08,3.26,4.29,7.75,4.29M1162.53,1239.8l180.78-82-1.73-4.34-185.33,73.24,6.28,13.1M1620.86,906.45h-132.92c-18.02,0-33.8,12.2-38.36,29.67-.43,1.66-.75,3.34-.96,5.03-3.66-9.63-10.98-17.53-20.39-21.88-5.18-2.4-10.94-3.67-16.66-3.67-5.34,0-10.54,1.06-15.46,3.14l-463.85,196.57c-19.48,8.26-31.33,27.97-29.48,49.05l.21,2.44c-.21.09-.41.18-.61.27l-56.91,25.63c-.73.33-1.39.65-2.03.98l-.04.02-.04.02c-23.52,12.31-33.41,40.32-23,65.15,4.05,9.65,11.17,17.63,20.61,23.08l.43.25c1.97,1.16,5.64,3.32,10.76,4.76l47.38,13.35,7.46,51.65c2.02,14,9.65,26.57,20.94,34.49,8.57,6.02,18.6,9.2,29.01,9.2,6.75,0,13.35-1.34,19.6-3.97l138.83-58.53c-9.38,32.46-15.28,71.84-16.62,112.38-.83,25.26-.79,87.69,17.55,121.83,10.74,19.99,25.33,27.54,36.23,30.3,14.81,4.29,39.4,5.21,57.72,5.21,13.01,0,26.38-.49,38.67-1.42,62.73-4.73,97.08-18.71,111.35-45.32,8.12-15.14,8.49-32.31,1.04-48.36-5.35-11.51-14.51-22.17-28.01-32.58-2.45-1.89-5.1-3.47-7.92-4.74-3.58-26.82-7.24-54.36-7.99-80.64l92.12-36.45c17.92-6.87,31.12-19.87,38.19-37.59,5.04-12.63,6.08-25.22,6.92-35.33v-.18c.13-1.34.24-2.7.37-4.12l.02-.23.02-.23c.39-5.11.63-9.83.76-14.09,5.44-1.92,10.24-3.47,14.54-4.86,17.08-5.51,38.15-12.3,47.19-35.11,2.62-.53,5.26-1.22,7.91-2.06,18.19-5.81,33.79-18.72,39.65-24,17.79-16.02,26.2-32.44,25-48.8-1.1-15.09-10.3-28.28-23.81-34.61-5.57-2.98-11.28-4.68-16.63-5.64,2.57-1.64,4.9-3.55,6.98-5.68,1.25.12,2.5.18,3.76.18,8.76,0,17.39-2.96,24.31-8.33l79.76-61.98c13.61-10.58,18.81-28.58,12.94-44.78l-19.3-53.33c-5.65-15.63-20.62-26.14-37.26-26.14h0ZM975.74,1273.49l133.02-55.98c-1.17,7.79,0,15.85,3.43,23.04l3.16,6.6-135.19,57-4.43-30.65h0ZM1208.74,1332.31h12.49l.46,157.44c-1.83.06-3.65.13-5.45.2-3.27.13-6.61.26-9.78.3.12-2.5.25-5.25.39-8.21.62-13.3,1.49-33.69,2.13-55.24,1.48-50.06.92-77.94-.24-94.49h0Z"/>
    </g>
  </g>
</svg>